<svg width="170" height="156" viewBox="0 0 170 156" fill="none" xmlns="http://www.w3.org/2000/svg">
<rect x="0.5" y="0.5" width="169" height="155" rx="8.5" fill="white" stroke="#BFBFBF"/>
<path d="M25.0028 22.2727V31H23.7926L19.3565 24.5994H19.2756V31H17.9588V22.2727H19.1776L23.6179 28.6818H23.6989V22.2727H25.0028ZM28.7262 31.1449C28.3114 31.1449 27.9364 31.0682 27.6012 30.9148C27.266 30.7585 27.0004 30.5327 26.8043 30.2372C26.6112 29.9418 26.5146 29.5795 26.5146 29.1506C26.5146 28.7812 26.5856 28.4773 26.7276 28.2386C26.8697 28 27.0614 27.8111 27.3029 27.6719C27.5444 27.5327 27.8143 27.4276 28.1126 27.3565C28.4109 27.2855 28.7148 27.2315 29.0245 27.1946C29.4165 27.1491 29.7347 27.1122 29.979 27.0838C30.2234 27.0526 30.4009 27.0028 30.5117 26.9347C30.6225 26.8665 30.6779 26.7557 30.6779 26.6023V26.5724C30.6779 26.2003 30.5728 25.9119 30.3626 25.7074C30.1552 25.5028 29.8455 25.4006 29.4336 25.4006C29.0046 25.4006 28.6665 25.4957 28.4194 25.6861C28.1751 25.8736 28.006 26.0824 27.9123 26.3125L26.7148 26.0398C26.8569 25.642 27.0643 25.321 27.337 25.0767C27.6126 24.8295 27.9293 24.6506 28.2873 24.5398C28.6452 24.4261 29.0217 24.3693 29.4165 24.3693C29.6779 24.3693 29.9549 24.4006 30.2475 24.4631C30.543 24.5227 30.8185 24.6335 31.0742 24.7955C31.3327 24.9574 31.5444 25.1889 31.7092 25.4901C31.8739 25.7884 31.9563 26.1761 31.9563 26.6534V31H30.712V30.1051H30.6609C30.5785 30.2699 30.4549 30.4318 30.2901 30.5909C30.1254 30.75 29.9137 30.8821 29.6552 30.9872C29.3967 31.0923 29.087 31.1449 28.7262 31.1449ZM29.0032 30.1222C29.3555 30.1222 29.6566 30.0526 29.9066 29.9134C30.1594 29.7741 30.3512 29.5923 30.4819 29.3679C30.6154 29.1406 30.6822 28.8977 30.6822 28.6392V27.7955C30.6367 27.8409 30.5487 27.8835 30.418 27.9233C30.2901 27.9602 30.1438 27.9929 29.979 28.0213C29.8143 28.0469 29.6538 28.071 29.4975 28.0938C29.3413 28.1136 29.2106 28.1307 29.1055 28.1449C28.8583 28.1761 28.6325 28.2287 28.4279 28.3026C28.2262 28.3764 28.0643 28.483 27.9421 28.6222C27.8228 28.7585 27.7631 28.9403 27.7631 29.1676C27.7631 29.483 27.8796 29.7216 28.1126 29.8835C28.3455 30.0426 28.6424 30.1222 29.0032 30.1222ZM33.6534 31V24.4545H34.8764V25.5199H34.9574C35.0938 25.1591 35.3168 24.8778 35.6264 24.6761C35.9361 24.4716 36.3068 24.3693 36.7386 24.3693C37.1761 24.3693 37.5426 24.4716 37.8381 24.6761C38.1364 24.8807 38.3565 25.1619 38.4986 25.5199H38.5668C38.723 25.1705 38.9716 24.892 39.3125 24.6847C39.6534 24.4744 40.0597 24.3693 40.5312 24.3693C41.125 24.3693 41.6094 24.5554 41.9844 24.9276C42.3622 25.2997 42.5511 25.8608 42.5511 26.6108V31H41.277V26.7301C41.277 26.2869 41.1563 25.9659 40.9148 25.767C40.6733 25.5682 40.3849 25.4688 40.0497 25.4688C39.6349 25.4688 39.3125 25.5966 39.0824 25.8523C38.8523 26.1051 38.7372 26.4304 38.7372 26.8281V31H37.4673V26.6491C37.4673 26.294 37.3565 26.0085 37.1349 25.7926C36.9134 25.5767 36.625 25.4688 36.2699 25.4688C36.0284 25.4688 35.8054 25.5327 35.6009 25.6605C35.3991 25.7855 35.2358 25.9602 35.1108 26.1847C34.9886 26.4091 34.9276 26.669 34.9276 26.9645V31H33.6534ZM47.0799 31.1321C46.435 31.1321 45.8796 30.9943 45.4137 30.7188C44.9506 30.4403 44.5927 30.0497 44.3398 29.5469C44.0898 29.0412 43.9648 28.4489 43.9648 27.7699C43.9648 27.0994 44.0898 26.5085 44.3398 25.9972C44.5927 25.4858 44.945 25.0866 45.3967 24.7997C45.8512 24.5128 46.3825 24.3693 46.9904 24.3693C47.3597 24.3693 47.7177 24.4304 48.0643 24.5526C48.4109 24.6747 48.7219 24.8665 48.9975 25.1278C49.2731 25.3892 49.4904 25.7287 49.6495 26.1463C49.8086 26.5611 49.8881 27.0653 49.8881 27.6591V28.1108H44.685V27.1562H48.6396C48.6396 26.821 48.5714 26.5241 48.435 26.2656C48.2987 26.0043 48.1069 25.7983 47.8597 25.6477C47.6154 25.4972 47.3285 25.4219 46.9989 25.4219C46.641 25.4219 46.3285 25.5099 46.0614 25.6861C45.7972 25.8594 45.5927 26.0866 45.4478 26.3679C45.3058 26.6463 45.2347 26.9489 45.2347 27.2756V28.0213C45.2347 28.4588 45.3114 28.831 45.4648 29.1378C45.6211 29.4446 45.8384 29.679 46.1168 29.8409C46.3952 30 46.7205 30.0795 47.0927 30.0795C47.3342 30.0795 47.5543 30.0455 47.7532 29.9773C47.9521 29.9062 48.1239 29.8011 48.2688 29.6619C48.4137 29.5227 48.5245 29.3509 48.6012 29.1463L49.8072 29.3636C49.7106 29.7187 49.5373 30.0298 49.2873 30.2969C49.0401 30.5611 48.729 30.767 48.354 30.9148C47.9819 31.0597 47.5572 31.1321 47.0799 31.1321Z" fill="#070707"/>
<path d="M18.696 54H17.2983L20.4389 45.2727H21.9602L25.1009 54H23.7031L21.2358 46.858H21.1676L18.696 54ZM18.9304 50.5824H23.4645V51.6903H18.9304V50.5824ZM28.6037 54.1278C28.0753 54.1278 27.6037 53.9929 27.1889 53.723C26.777 53.4503 26.4531 53.0625 26.2173 52.5597C25.9844 52.054 25.8679 51.4474 25.8679 50.7401C25.8679 50.0327 25.9858 49.4276 26.2216 48.9247C26.4602 48.4219 26.7869 48.0369 27.2017 47.7699C27.6165 47.5028 28.0866 47.3693 28.6122 47.3693C29.0185 47.3693 29.3452 47.4375 29.5923 47.5739C29.8423 47.7074 30.0355 47.8636 30.1719 48.0426C30.3111 48.2216 30.419 48.3793 30.4957 48.5156H30.5724V45.2727H31.8466V54H30.6023V52.9815H30.4957C30.419 53.1207 30.3082 53.2798 30.1634 53.4588C30.0213 53.6378 29.8253 53.794 29.5753 53.9276C29.3253 54.0611 29.0014 54.1278 28.6037 54.1278ZM28.8849 53.0412C29.2514 53.0412 29.5611 52.9446 29.8139 52.7514C30.0696 52.5554 30.2628 52.2841 30.3935 51.9375C30.527 51.5909 30.5938 51.1875 30.5938 50.7273C30.5938 50.2727 30.5284 49.875 30.3977 49.5341C30.267 49.1932 30.0753 48.9276 29.8224 48.7372C29.5696 48.5469 29.2571 48.4517 28.8849 48.4517C28.5014 48.4517 28.1818 48.5511 27.9261 48.75C27.6705 48.9489 27.4773 49.2202 27.3466 49.5639C27.2188 49.9077 27.1548 50.2955 27.1548 50.7273C27.1548 51.1648 27.2202 51.5582 27.3509 51.9077C27.4815 52.2571 27.6747 52.5341 27.9304 52.7386C28.1889 52.9403 28.5071 53.0412 28.8849 53.0412ZM36.1154 54.1278C35.587 54.1278 35.1154 53.9929 34.7006 53.723C34.2887 53.4503 33.9648 53.0625 33.729 52.5597C33.4961 52.054 33.3796 51.4474 33.3796 50.7401C33.3796 50.0327 33.4975 49.4276 33.7333 48.9247C33.9719 48.4219 34.2987 48.0369 34.7134 47.7699C35.1282 47.5028 35.5984 47.3693 36.1239 47.3693C36.5302 47.3693 36.8569 47.4375 37.104 47.5739C37.354 47.7074 37.5472 47.8636 37.6836 48.0426C37.8228 48.2216 37.9308 48.3793 38.0075 48.5156H38.0842V45.2727H39.3583V54H38.114V52.9815H38.0075C37.9308 53.1207 37.82 53.2798 37.6751 53.4588C37.533 53.6378 37.337 53.794 37.087 53.9276C36.837 54.0611 36.5131 54.1278 36.1154 54.1278ZM36.3967 53.0412C36.7631 53.0412 37.0728 52.9446 37.3256 52.7514C37.5813 52.5554 37.7745 52.2841 37.9052 51.9375C38.0387 51.5909 38.1055 51.1875 38.1055 50.7273C38.1055 50.2727 38.0401 49.875 37.9094 49.5341C37.7788 49.1932 37.587 48.9276 37.3342 48.7372C37.0813 48.5469 36.7688 48.4517 36.3967 48.4517C36.0131 48.4517 35.6935 48.5511 35.4379 48.75C35.1822 48.9489 34.989 49.2202 34.8583 49.5639C34.7305 49.9077 34.6665 50.2955 34.6665 50.7273C34.6665 51.1648 34.7319 51.5582 34.8626 51.9077C34.9933 52.2571 35.1864 52.5341 35.4421 52.7386C35.7006 52.9403 36.0188 53.0412 36.3967 53.0412ZM41.1768 54V47.4545H42.4084V48.4943H42.4766C42.5959 48.142 42.8061 47.8651 43.1072 47.6634C43.4112 47.4588 43.755 47.3565 44.1385 47.3565C44.218 47.3565 44.3118 47.3594 44.4197 47.3651C44.5305 47.3707 44.6172 47.3778 44.6797 47.3864V48.6051C44.6286 48.5909 44.5376 48.5753 44.407 48.5582C44.2763 48.5384 44.1456 48.5284 44.0149 48.5284C43.7138 48.5284 43.4453 48.5923 43.2095 48.7202C42.9766 48.8452 42.7919 49.0199 42.6555 49.2443C42.5192 49.4659 42.451 49.7187 42.451 50.0028V54H41.1768ZM48.369 54.1321C47.7241 54.1321 47.1687 53.9943 46.7028 53.7188C46.2397 53.4403 45.8817 53.0497 45.6289 52.5469C45.3789 52.0412 45.2539 51.4489 45.2539 50.7699C45.2539 50.0994 45.3789 49.5085 45.6289 48.9972C45.8817 48.4858 46.234 48.0866 46.6857 47.7997C47.1403 47.5128 47.6715 47.3693 48.2795 47.3693C48.6488 47.3693 49.0067 47.4304 49.3533 47.5526C49.6999 47.6747 50.011 47.8665 50.2866 48.1278C50.5621 48.3892 50.7795 48.7287 50.9386 49.1463C51.0977 49.5611 51.1772 50.0653 51.1772 50.6591V51.1108H45.9741V50.1562H49.9286C49.9286 49.821 49.8604 49.5241 49.7241 49.2656C49.5877 49.0043 49.396 48.7983 49.1488 48.6477C48.9045 48.4972 48.6175 48.4219 48.288 48.4219C47.93 48.4219 47.6175 48.5099 47.3505 48.6861C47.0863 48.8594 46.8817 49.0866 46.7369 49.3679C46.5948 49.6463 46.5238 49.9489 46.5238 50.2756V51.0213C46.5238 51.4588 46.6005 51.831 46.7539 52.1378C46.9102 52.4446 47.1275 52.679 47.4059 52.8409C47.6843 53 48.0096 53.0795 48.3817 53.0795C48.6232 53.0795 48.8434 53.0455 49.0423 52.9773C49.2411 52.9062 49.413 52.8011 49.5579 52.6619C49.7028 52.5227 49.8136 52.3509 49.8903 52.1463L51.0962 52.3636C50.9996 52.7187 50.8263 53.0298 50.5763 53.2969C50.3292 53.5611 50.0181 53.767 49.6431 53.9148C49.271 54.0597 48.8462 54.1321 48.369 54.1321ZM57.4957 49.0526L56.3409 49.2571C56.2926 49.1094 56.2159 48.9687 56.1108 48.8352C56.0085 48.7017 55.8693 48.5923 55.6932 48.5071C55.517 48.4219 55.2969 48.3793 55.0327 48.3793C54.6719 48.3793 54.3707 48.4602 54.1293 48.6222C53.8878 48.7812 53.767 48.9872 53.767 49.2401C53.767 49.4588 53.848 49.6349 54.0099 49.7685C54.1719 49.902 54.4332 50.0114 54.794 50.0966L55.8338 50.3352C56.4361 50.4744 56.8849 50.6889 57.1804 50.9787C57.4759 51.2685 57.6236 51.6449 57.6236 52.108C57.6236 52.5 57.5099 52.8494 57.2827 53.1562C57.0582 53.4602 56.7443 53.6989 56.3409 53.8722C55.9403 54.0455 55.4759 54.1321 54.9474 54.1321C54.2145 54.1321 53.6165 53.9759 53.1534 53.6634C52.6903 53.348 52.4063 52.9006 52.3011 52.321L53.5327 52.1335C53.6094 52.4545 53.767 52.6974 54.0057 52.8622C54.2443 53.0241 54.5554 53.1051 54.9389 53.1051C55.3565 53.1051 55.6903 53.0185 55.9403 52.8452C56.1903 52.669 56.3153 52.4545 56.3153 52.2017C56.3153 51.9972 56.2386 51.8253 56.0852 51.6861C55.9347 51.5469 55.7031 51.4418 55.3906 51.3707L54.2827 51.1278C53.6719 50.9886 53.2202 50.767 52.9276 50.4631C52.6378 50.1591 52.4929 49.7741 52.4929 49.3082C52.4929 48.9219 52.6009 48.5838 52.8168 48.294C53.0327 48.0043 53.331 47.7784 53.7116 47.6165C54.0923 47.4517 54.5284 47.3693 55.0199 47.3693C55.7273 47.3693 56.2841 47.5227 56.6903 47.8295C57.0966 48.1335 57.3651 48.5412 57.4957 49.0526ZM63.9293 49.0526L62.7745 49.2571C62.7262 49.1094 62.6495 48.9687 62.5444 48.8352C62.4421 48.7017 62.3029 48.5923 62.1268 48.5071C61.9506 48.4219 61.7305 48.3793 61.4663 48.3793C61.1055 48.3793 60.8043 48.4602 60.5629 48.6222C60.3214 48.7812 60.2006 48.9872 60.2006 49.2401C60.2006 49.4588 60.2816 49.6349 60.4435 49.7685C60.6055 49.902 60.8668 50.0114 61.2276 50.0966L62.2674 50.3352C62.8697 50.4744 63.3185 50.6889 63.614 50.9787C63.9094 51.2685 64.0572 51.6449 64.0572 52.108C64.0572 52.5 63.9435 52.8494 63.7163 53.1562C63.4918 53.4602 63.1779 53.6989 62.7745 53.8722C62.3739 54.0455 61.9094 54.1321 61.381 54.1321C60.6481 54.1321 60.0501 53.9759 59.587 53.6634C59.1239 53.348 58.8398 52.9006 58.7347 52.321L59.9663 52.1335C60.043 52.4545 60.2006 52.6974 60.4393 52.8622C60.6779 53.0241 60.989 53.1051 61.3725 53.1051C61.7901 53.1051 62.1239 53.0185 62.3739 52.8452C62.6239 52.669 62.7489 52.4545 62.7489 52.2017C62.7489 51.9972 62.6722 51.8253 62.5188 51.6861C62.3683 51.5469 62.1367 51.4418 61.8242 51.3707L60.7163 51.1278C60.1055 50.9886 59.6538 50.767 59.3612 50.4631C59.0714 50.1591 58.9265 49.7741 58.9265 49.3082C58.9265 48.9219 59.0344 48.5838 59.2504 48.294C59.4663 48.0043 59.7646 47.7784 60.1452 47.6165C60.5259 47.4517 60.962 47.3693 61.4535 47.3693C62.1609 47.3693 62.7177 47.5227 63.1239 47.8295C63.5302 48.1335 63.7987 48.5412 63.9293 49.0526ZM66.2976 54.081C66.0646 54.081 65.8643 53.9986 65.6967 53.8338C65.5291 53.6662 65.4453 53.4645 65.4453 53.2287C65.4453 52.9957 65.5291 52.7969 65.6967 52.6321C65.8643 52.4645 66.0646 52.3807 66.2976 52.3807C66.5305 52.3807 66.7308 52.4645 66.8984 52.6321C67.0661 52.7969 67.1499 52.9957 67.1499 53.2287C67.1499 53.3849 67.1101 53.5284 67.0305 53.6591C66.9538 53.7869 66.8516 53.8892 66.7237 53.9659C66.5959 54.0426 66.4538 54.081 66.2976 54.081ZM66.2976 49.3168C66.0646 49.3168 65.8643 49.233 65.6967 49.0653C65.5291 48.8977 65.4453 48.6974 65.4453 48.4645C65.4453 48.2315 65.5291 48.0327 65.6967 47.8679C65.8643 47.7003 66.0646 47.6165 66.2976 47.6165C66.5305 47.6165 66.7308 47.7003 66.8984 47.8679C67.0661 48.0327 67.1499 48.2315 67.1499 48.4645C67.1499 48.6207 67.1101 48.7642 67.0305 48.8949C66.9538 49.0227 66.8516 49.125 66.7237 49.2017C66.5959 49.2784 66.4538 49.3168 66.2976 49.3168Z" fill="#070707"/>
<path d="M20.7841 79H17.9588V70.2727H20.8736C21.7287 70.2727 22.4631 70.4474 23.0767 70.7969C23.6903 71.1435 24.1605 71.642 24.4872 72.2926C24.8168 72.9403 24.9815 73.7173 24.9815 74.6236C24.9815 75.5327 24.8153 76.3139 24.483 76.9673C24.1534 77.6207 23.6761 78.1236 23.0511 78.4759C22.4261 78.8253 21.6705 79 20.7841 79ZM19.2756 77.8494H20.7116C21.3764 77.8494 21.929 77.7244 22.3693 77.4744C22.8097 77.2216 23.1392 76.8565 23.358 76.3793C23.5767 75.8991 23.6861 75.3139 23.6861 74.6236C23.6861 73.9389 23.5767 73.358 23.358 72.8807C23.142 72.4034 22.8196 72.0412 22.3906 71.794C21.9616 71.5469 21.429 71.4233 20.7926 71.4233H19.2756V77.8494ZM28.4215 79.1449C28.0067 79.1449 27.6317 79.0682 27.2965 78.9148C26.9613 78.7585 26.6957 78.5327 26.4996 78.2372C26.3065 77.9418 26.2099 77.5795 26.2099 77.1506C26.2099 76.7812 26.2809 76.4773 26.4229 76.2386C26.565 76 26.7567 75.8111 26.9982 75.6719C27.2397 75.5327 27.5096 75.4276 27.8079 75.3565C28.1062 75.2855 28.4102 75.2315 28.7198 75.1946C29.1119 75.1491 29.43 75.1122 29.6744 75.0838C29.9187 75.0526 30.0962 75.0028 30.207 74.9347C30.3178 74.8665 30.3732 74.7557 30.3732 74.6023V74.5724C30.3732 74.2003 30.2681 73.9119 30.0579 73.7074C29.8505 73.5028 29.5408 73.4006 29.1289 73.4006C28.6999 73.4006 28.3619 73.4957 28.1147 73.6861C27.8704 73.8736 27.7013 74.0824 27.6076 74.3125L26.4102 74.0398C26.5522 73.642 26.7596 73.321 27.0323 73.0767C27.3079 72.8295 27.6246 72.6506 27.9826 72.5398C28.3406 72.4261 28.717 72.3693 29.1119 72.3693C29.3732 72.3693 29.6502 72.4006 29.9428 72.4631C30.2383 72.5227 30.5138 72.6335 30.7695 72.7955C31.0281 72.9574 31.2397 73.1889 31.4045 73.4901C31.5692 73.7884 31.6516 74.1761 31.6516 74.6534V79H30.4073V78.1051H30.3562C30.2738 78.2699 30.1502 78.4318 29.9854 78.5909C29.8207 78.75 29.609 78.8821 29.3505 78.9872C29.092 79.0923 28.7823 79.1449 28.4215 79.1449ZM28.6985 78.1222C29.0508 78.1222 29.3519 78.0526 29.6019 77.9134C29.8548 77.7741 30.0465 77.5923 30.1772 77.3679C30.3107 77.1406 30.3775 76.8977 30.3775 76.6392V75.7955C30.332 75.8409 30.244 75.8835 30.1133 75.9233C29.9854 75.9602 29.8391 75.9929 29.6744 76.0213C29.5096 76.0469 29.3491 76.071 29.1928 76.0938C29.0366 76.1136 28.9059 76.1307 28.8008 76.1449C28.5536 76.1761 28.3278 76.2287 28.1232 76.3026C27.9215 76.3764 27.7596 76.483 27.6374 76.6222C27.5181 76.7585 27.4585 76.9403 27.4585 77.1676C27.4585 77.483 27.5749 77.7216 27.8079 77.8835C28.0408 78.0426 28.3377 78.1222 28.6985 78.1222ZM36.4041 72.4545V73.4773H32.8288V72.4545H36.4041ZM33.7876 70.8864H35.0618V77.0781C35.0618 77.3253 35.0987 77.5114 35.1726 77.6364C35.2464 77.7585 35.3416 77.8423 35.4581 77.8878C35.5774 77.9304 35.7067 77.9517 35.8459 77.9517C35.9482 77.9517 36.0376 77.9446 36.1143 77.9304C36.1911 77.9162 36.2507 77.9048 36.2933 77.8963L36.5234 78.9489C36.4496 78.9773 36.3445 79.0057 36.2081 79.0341C36.0717 79.0653 35.9013 79.0824 35.6967 79.0852C35.3615 79.0909 35.049 79.0312 34.7592 78.9062C34.4695 78.7812 34.2351 78.5881 34.0561 78.3267C33.8771 78.0653 33.7876 77.7372 33.7876 77.3423V70.8864ZM40.5643 79.1321C39.9194 79.1321 39.364 78.9943 38.8981 78.7188C38.435 78.4403 38.0771 78.0497 37.8242 77.5469C37.5742 77.0412 37.4492 76.4489 37.4492 75.7699C37.4492 75.0994 37.5742 74.5085 37.8242 73.9972C38.0771 73.4858 38.4293 73.0866 38.881 72.7997C39.3356 72.5128 39.8668 72.3693 40.4748 72.3693C40.8441 72.3693 41.2021 72.4304 41.5487 72.5526C41.8952 72.6747 42.2063 72.8665 42.4819 73.1278C42.7575 73.3892 42.9748 73.7287 43.1339 74.1463C43.293 74.5611 43.3725 75.0653 43.3725 75.6591V76.1108H38.1694V75.1562H42.1239C42.1239 74.821 42.0558 74.5241 41.9194 74.2656C41.783 74.0043 41.5913 73.7983 41.3441 73.6477C41.0998 73.4972 40.8129 73.4219 40.4833 73.4219C40.1254 73.4219 39.8129 73.5099 39.5458 73.6861C39.2816 73.8594 39.0771 74.0866 38.9322 74.3679C38.7901 74.6463 38.7191 74.9489 38.7191 75.2756V76.0213C38.7191 76.4588 38.7958 76.831 38.9492 77.1378C39.1055 77.4446 39.3228 77.679 39.6012 77.8409C39.8796 78 40.2049 78.0795 40.5771 78.0795C40.8185 78.0795 41.0387 78.0455 41.2376 77.9773C41.4364 77.9062 41.6083 77.8011 41.7532 77.6619C41.8981 77.5227 42.0089 77.3509 42.0856 77.1463L43.2915 77.3636C43.195 77.7187 43.0217 78.0298 42.7717 78.2969C42.5245 78.5611 42.2134 78.767 41.8384 78.9148C41.4663 79.0597 41.0415 79.1321 40.5643 79.1321ZM45.6257 79.081C45.3928 79.081 45.1925 78.9986 45.0249 78.8338C44.8572 78.6662 44.7734 78.4645 44.7734 78.2287C44.7734 77.9957 44.8572 77.7969 45.0249 77.6321C45.1925 77.4645 45.3928 77.3807 45.6257 77.3807C45.8587 77.3807 46.0589 77.4645 46.2266 77.6321C46.3942 77.7969 46.478 77.9957 46.478 78.2287C46.478 78.3849 46.4382 78.5284 46.3587 78.6591C46.282 78.7869 46.1797 78.8892 46.0518 78.9659C45.924 79.0426 45.782 79.081 45.6257 79.081ZM45.6257 74.3168C45.3928 74.3168 45.1925 74.233 45.0249 74.0653C44.8572 73.8977 44.7734 73.6974 44.7734 73.4645C44.7734 73.2315 44.8572 73.0327 45.0249 72.8679C45.1925 72.7003 45.3928 72.6165 45.6257 72.6165C45.8587 72.6165 46.0589 72.7003 46.2266 72.8679C46.3942 73.0327 46.478 73.2315 46.478 73.4645C46.478 73.6207 46.4382 73.7642 46.3587 73.8949C46.282 74.0227 46.1797 74.125 46.0518 74.2017C45.924 74.2784 45.782 74.3168 45.6257 74.3168Z" fill="#070707"/>
<path d="M92.4176 26.6619V26.0227C92.8977 26.0227 93.233 25.9247 93.4233 25.7287C93.6136 25.5298 93.7088 25.2017 93.7088 24.7443V23.5213C93.7088 23.0866 93.7571 22.7216 93.8537 22.4261C93.9531 22.1278 94.1037 21.8892 94.3054 21.7102C94.5071 21.5312 94.7628 21.402 95.0724 21.3224C95.3821 21.2429 95.7472 21.2031 96.1676 21.2031V22.2131C95.8381 22.2131 95.581 22.2614 95.3963 22.358C95.2116 22.4545 95.0824 22.6051 95.0085 22.8097C94.9375 23.0114 94.902 23.2699 94.902 23.5852V25.1364C94.902 25.3551 94.8693 25.5582 94.804 25.7457C94.7386 25.9304 94.6179 26.0909 94.4418 26.2273C94.2656 26.3636 94.0142 26.4702 93.6875 26.5469C93.3608 26.6236 92.9375 26.6619 92.4176 26.6619ZM96.1676 32.0739C95.7472 32.0739 95.3821 32.0341 95.0724 31.9545C94.7628 31.875 94.5071 31.7457 94.3054 31.5668C94.1037 31.3878 93.9531 31.1506 93.8537 30.8551C93.7571 30.5568 93.7088 30.1903 93.7088 29.7557V28.5284C93.7088 28.0739 93.6136 27.7472 93.4233 27.5483C93.233 27.3494 92.8977 27.25 92.4176 27.25V26.6151C92.9375 26.6151 93.3608 26.6534 93.6875 26.7301C94.0142 26.804 94.2656 26.9105 94.4418 27.0497C94.6179 27.1861 94.7386 27.348 94.804 27.5355C94.8693 27.7202 94.902 27.9219 94.902 28.1406V29.6918C94.902 30.0043 94.9375 30.2628 95.0085 30.4673C95.0824 30.669 95.2116 30.8196 95.3963 30.919C95.581 31.0156 95.8381 31.0639 96.1676 31.0639V32.0739ZM92.4176 27.25V26.0227H93.598V27.25H92.4176ZM104.538 22.2727V31H103.328L98.8917 24.5994H98.8107V31H97.494V22.2727H98.7127L103.153 28.6818H103.234V22.2727H104.538ZM108.261 31.1449C107.847 31.1449 107.472 31.0682 107.136 30.9148C106.801 30.7585 106.536 30.5327 106.339 30.2372C106.146 29.9418 106.05 29.5795 106.05 29.1506C106.05 28.7812 106.121 28.4773 106.263 28.2386C106.405 28 106.597 27.8111 106.838 27.6719C107.08 27.5327 107.349 27.4276 107.648 27.3565C107.946 27.2855 108.25 27.2315 108.56 27.1946C108.952 27.1491 109.27 27.1122 109.514 27.0838C109.759 27.0526 109.936 27.0028 110.047 26.9347C110.158 26.8665 110.213 26.7557 110.213 26.6023V26.5724C110.213 26.2003 110.108 25.9119 109.898 25.7074C109.69 25.5028 109.381 25.4006 108.969 25.4006C108.54 25.4006 108.202 25.4957 107.955 25.6861C107.71 25.8736 107.541 26.0824 107.447 26.3125L106.25 26.0398C106.392 25.642 106.599 25.321 106.872 25.0767C107.148 24.8295 107.464 24.6506 107.822 24.5398C108.18 24.4261 108.557 24.3693 108.952 24.3693C109.213 24.3693 109.49 24.4006 109.783 24.4631C110.078 24.5227 110.354 24.6335 110.609 24.7955C110.868 24.9574 111.08 25.1889 111.244 25.4901C111.409 25.7884 111.491 26.1761 111.491 26.6534V31H110.247V30.1051H110.196C110.114 30.2699 109.99 30.4318 109.825 30.5909C109.661 30.75 109.449 30.8821 109.19 30.9872C108.932 31.0923 108.622 31.1449 108.261 31.1449ZM108.538 30.1222C108.891 30.1222 109.192 30.0526 109.442 29.9134C109.695 29.7741 109.886 29.5923 110.017 29.3679C110.151 29.1406 110.217 28.8977 110.217 28.6392V27.7955C110.172 27.8409 110.084 27.8835 109.953 27.9233C109.825 27.9602 109.679 27.9929 109.514 28.0213C109.349 28.0469 109.189 28.071 109.033 28.0938C108.876 28.1136 108.746 28.1307 108.641 28.1449C108.393 28.1761 108.168 28.2287 107.963 28.3026C107.761 28.3764 107.599 28.483 107.477 28.6222C107.358 28.7585 107.298 28.9403 107.298 29.1676C107.298 29.483 107.415 29.7216 107.648 29.8835C107.881 30.0426 108.178 30.1222 108.538 30.1222ZM113.189 31V24.4545H114.412V25.5199H114.493C114.629 25.1591 114.852 24.8778 115.162 24.6761C115.471 24.4716 115.842 24.3693 116.274 24.3693C116.711 24.3693 117.078 24.4716 117.373 24.6761C117.672 24.8807 117.892 25.1619 118.034 25.5199H118.102C118.258 25.1705 118.507 24.892 118.848 24.6847C119.189 24.4744 119.595 24.3693 120.066 24.3693C120.66 24.3693 121.145 24.5554 121.52 24.9276C121.897 25.2997 122.086 25.8608 122.086 26.6108V31H120.812V26.7301C120.812 26.2869 120.691 25.9659 120.45 25.767C120.208 25.5682 119.92 25.4688 119.585 25.4688C119.17 25.4688 118.848 25.5966 118.618 25.8523C118.387 26.1051 118.272 26.4304 118.272 26.8281V31H117.002V26.6491C117.002 26.294 116.892 26.0085 116.67 25.7926C116.449 25.5767 116.16 25.4688 115.805 25.4688C115.564 25.4688 115.341 25.5327 115.136 25.6605C114.934 25.7855 114.771 25.9602 114.646 26.1847C114.524 26.4091 114.463 26.669 114.463 26.9645V31H113.189ZM126.615 31.1321C125.97 31.1321 125.415 30.9943 124.949 30.7188C124.486 30.4403 124.128 30.0497 123.875 29.5469C123.625 29.0412 123.5 28.4489 123.5 27.7699C123.5 27.0994 123.625 26.5085 123.875 25.9972C124.128 25.4858 124.48 25.0866 124.932 24.7997C125.386 24.5128 125.918 24.3693 126.526 24.3693C126.895 24.3693 127.253 24.4304 127.599 24.5526C127.946 24.6747 128.257 24.8665 128.533 25.1278C128.808 25.3892 129.026 25.7287 129.185 26.1463C129.344 26.5611 129.423 27.0653 129.423 27.6591V28.1108H124.22V27.1562H128.175C128.175 26.821 128.107 26.5241 127.97 26.2656C127.834 26.0043 127.642 25.7983 127.395 25.6477C127.151 25.4972 126.864 25.4219 126.534 25.4219C126.176 25.4219 125.864 25.5099 125.597 25.6861C125.332 25.8594 125.128 26.0866 124.983 26.3679C124.841 26.6463 124.77 26.9489 124.77 27.2756V28.0213C124.77 28.4588 124.847 28.831 125 29.1378C125.156 29.4446 125.374 29.679 125.652 29.8409C125.93 30 126.256 30.0795 126.628 30.0795C126.869 30.0795 127.089 30.0455 127.288 29.9773C127.487 29.9062 127.659 29.8011 127.804 29.6619C127.949 29.5227 128.06 29.3509 128.136 29.1463L129.342 29.3636C129.246 29.7187 129.072 30.0298 128.822 30.2969C128.575 30.5611 128.264 30.767 127.889 30.9148C127.517 31.0597 127.092 31.1321 126.615 31.1321ZM134.097 27.3565V27.9915C133.617 27.9915 133.282 28.0909 133.091 28.2898C132.901 28.4886 132.806 28.8153 132.806 29.2699V30.4972C132.806 30.9318 132.756 31.2969 132.657 31.5923C132.56 31.8906 132.411 32.1293 132.209 32.3082C132.007 32.4872 131.752 32.6165 131.442 32.696C131.132 32.7756 130.767 32.8153 130.347 32.8153V31.8054C130.676 31.8054 130.934 31.7557 131.118 31.6562C131.303 31.5597 131.431 31.4091 131.502 31.2045C131.576 31.0028 131.613 30.7457 131.613 30.4332V28.8821C131.613 28.6634 131.645 28.4616 131.711 28.277C131.776 28.0895 131.897 27.9276 132.073 27.7912C132.249 27.652 132.5 27.5455 132.827 27.4716C133.154 27.3949 133.577 27.3565 134.097 27.3565ZM130.347 21.9446C130.767 21.9446 131.132 21.9844 131.442 22.0639C131.752 22.1435 132.007 22.2727 132.209 22.4517C132.411 22.6307 132.56 22.8693 132.657 23.1676C132.756 23.4631 132.806 23.8281 132.806 24.2628V25.4858C132.806 25.9432 132.901 26.2713 133.091 26.4702C133.282 26.6662 133.617 26.7642 134.097 26.7642V27.4034C133.577 27.4034 133.154 27.3651 132.827 27.2884C132.5 27.2116 132.249 27.1051 132.073 26.9688C131.897 26.8324 131.776 26.6719 131.711 26.4872C131.645 26.2997 131.613 26.0966 131.613 25.8778V24.3267C131.613 24.0114 131.576 23.7528 131.502 23.5511C131.431 23.3466 131.303 23.196 131.118 23.0994C130.934 23.0028 130.676 22.9545 130.347 22.9545V21.9446ZM134.097 26.7642V27.9915H132.917V26.7642H134.097Z" fill="#070707"/>
<path d="M92.4176 49.6619V49.0227C92.8977 49.0227 93.233 48.9247 93.4233 48.7287C93.6136 48.5298 93.7088 48.2017 93.7088 47.7443V46.5213C93.7088 46.0866 93.7571 45.7216 93.8537 45.4261C93.9531 45.1278 94.1037 44.8892 94.3054 44.7102C94.5071 44.5312 94.7628 44.402 95.0724 44.3224C95.3821 44.2429 95.7472 44.2031 96.1676 44.2031V45.2131C95.8381 45.2131 95.581 45.2614 95.3963 45.358C95.2116 45.4545 95.0824 45.6051 95.0085 45.8097C94.9375 46.0114 94.902 46.2699 94.902 46.5852V48.1364C94.902 48.3551 94.8693 48.5582 94.804 48.7457C94.7386 48.9304 94.6179 49.0909 94.4418 49.2273C94.2656 49.3636 94.0142 49.4702 93.6875 49.5469C93.3608 49.6236 92.9375 49.6619 92.4176 49.6619ZM96.1676 55.0739C95.7472 55.0739 95.3821 55.0341 95.0724 54.9545C94.7628 54.875 94.5071 54.7457 94.3054 54.5668C94.1037 54.3878 93.9531 54.1506 93.8537 53.8551C93.7571 53.5568 93.7088 53.1903 93.7088 52.7557V51.5284C93.7088 51.0739 93.6136 50.7472 93.4233 50.5483C93.233 50.3494 92.8977 50.25 92.4176 50.25V49.6151C92.9375 49.6151 93.3608 49.6534 93.6875 49.7301C94.0142 49.804 94.2656 49.9105 94.4418 50.0497C94.6179 50.1861 94.7386 50.348 94.804 50.5355C94.8693 50.7202 94.902 50.9219 94.902 51.1406V52.6918C94.902 53.0043 94.9375 53.2628 95.0085 53.4673C95.0824 53.669 95.2116 53.8196 95.3963 53.919C95.581 54.0156 95.8381 54.0639 96.1676 54.0639V55.0739ZM92.4176 50.25V49.0227H93.598V50.25H92.4176ZM98.2312 54H96.8335L99.9741 45.2727H101.495L104.636 54H103.238L100.771 46.858H100.703L98.2312 54ZM98.4656 50.5824H103V51.6903H98.4656V50.5824ZM108.139 54.1278C107.61 54.1278 107.139 53.9929 106.724 53.723C106.312 53.4503 105.988 53.0625 105.752 52.5597C105.52 52.054 105.403 51.4474 105.403 50.7401C105.403 50.0327 105.521 49.4276 105.757 48.9247C105.995 48.4219 106.322 48.0369 106.737 47.7699C107.152 47.5028 107.622 47.3693 108.147 47.3693C108.554 47.3693 108.88 47.4375 109.127 47.5739C109.377 47.7074 109.571 47.8636 109.707 48.0426C109.846 48.2216 109.954 48.3793 110.031 48.5156H110.108V45.2727H111.382V54H110.137V52.9815H110.031C109.954 53.1207 109.843 53.2798 109.699 53.4588C109.556 53.6378 109.36 53.794 109.11 53.9276C108.86 54.0611 108.537 54.1278 108.139 54.1278ZM108.42 53.0412C108.787 53.0412 109.096 52.9446 109.349 52.7514C109.605 52.5554 109.798 52.2841 109.929 51.9375C110.062 51.5909 110.129 51.1875 110.129 50.7273C110.129 50.2727 110.064 49.875 109.933 49.5341C109.802 49.1932 109.61 48.9276 109.358 48.7372C109.105 48.5469 108.792 48.4517 108.42 48.4517C108.037 48.4517 107.717 48.5511 107.461 48.75C107.206 48.9489 107.012 49.2202 106.882 49.5639C106.754 49.9077 106.69 50.2955 106.69 50.7273C106.69 51.1648 106.755 51.5582 106.886 51.9077C107.017 52.2571 107.21 52.5341 107.466 52.7386C107.724 52.9403 108.042 53.0412 108.42 53.0412ZM115.651 54.1278C115.122 54.1278 114.651 53.9929 114.236 53.723C113.824 53.4503 113.5 53.0625 113.264 52.5597C113.031 52.054 112.915 51.4474 112.915 50.7401C112.915 50.0327 113.033 49.4276 113.268 48.9247C113.507 48.4219 113.834 48.0369 114.249 47.7699C114.663 47.5028 115.134 47.3693 115.659 47.3693C116.065 47.3693 116.392 47.4375 116.639 47.5739C116.889 47.7074 117.082 47.8636 117.219 48.0426C117.358 48.2216 117.466 48.3793 117.543 48.5156H117.619V45.2727H118.893V54H117.649V52.9815H117.543C117.466 53.1207 117.355 53.2798 117.21 53.4588C117.068 53.6378 116.872 53.794 116.622 53.9276C116.372 54.0611 116.048 54.1278 115.651 54.1278ZM115.932 53.0412C116.298 53.0412 116.608 52.9446 116.861 52.7514C117.116 52.5554 117.31 52.2841 117.44 51.9375C117.574 51.5909 117.641 51.1875 117.641 50.7273C117.641 50.2727 117.575 49.875 117.445 49.5341C117.314 49.1932 117.122 48.9276 116.869 48.7372C116.616 48.5469 116.304 48.4517 115.932 48.4517C115.548 48.4517 115.229 48.5511 114.973 48.75C114.717 48.9489 114.524 49.2202 114.393 49.5639C114.266 49.9077 114.202 50.2955 114.202 50.7273C114.202 51.1648 114.267 51.5582 114.398 51.9077C114.528 52.2571 114.722 52.5341 114.977 52.7386C115.236 52.9403 115.554 53.0412 115.932 53.0412ZM120.712 54V47.4545H121.944V48.4943H122.012C122.131 48.142 122.341 47.8651 122.642 47.6634C122.946 47.4588 123.29 47.3565 123.674 47.3565C123.753 47.3565 123.847 47.3594 123.955 47.3651C124.066 47.3707 124.152 47.3778 124.215 47.3864V48.6051C124.164 48.5909 124.073 48.5753 123.942 48.5582C123.811 48.5384 123.681 48.5284 123.55 48.5284C123.249 48.5284 122.98 48.5923 122.745 48.7202C122.512 48.8452 122.327 49.0199 122.191 49.2443C122.054 49.4659 121.986 49.7187 121.986 50.0028V54H120.712ZM127.904 54.1321C127.259 54.1321 126.704 53.9943 126.238 53.7188C125.775 53.4403 125.417 53.0497 125.164 52.5469C124.914 52.0412 124.789 51.4489 124.789 50.7699C124.789 50.0994 124.914 49.5085 125.164 48.9972C125.417 48.4858 125.769 48.0866 126.221 47.7997C126.675 47.5128 127.207 47.3693 127.815 47.3693C128.184 47.3693 128.542 47.4304 128.888 47.5526C129.235 47.6747 129.546 47.8665 129.822 48.1278C130.097 48.3892 130.315 48.7287 130.474 49.1463C130.633 49.5611 130.712 50.0653 130.712 50.6591V51.1108H125.509V50.1562H129.464C129.464 49.821 129.396 49.5241 129.259 49.2656C129.123 49.0043 128.931 48.7983 128.684 48.6477C128.44 48.4972 128.153 48.4219 127.823 48.4219C127.465 48.4219 127.153 48.5099 126.886 48.6861C126.621 48.8594 126.417 49.0866 126.272 49.3679C126.13 49.6463 126.059 49.9489 126.059 50.2756V51.0213C126.059 51.4588 126.136 51.831 126.289 52.1378C126.445 52.4446 126.663 52.679 126.941 52.8409C127.219 53 127.545 53.0795 127.917 53.0795C128.158 53.0795 128.379 53.0455 128.577 52.9773C128.776 52.9062 128.948 52.8011 129.093 52.6619C129.238 52.5227 129.349 52.3509 129.425 52.1463L130.631 52.3636C130.535 52.7187 130.362 53.0298 130.112 53.2969C129.864 53.5611 129.553 53.767 129.178 53.9148C128.806 54.0597 128.381 54.1321 127.904 54.1321ZM137.031 49.0526L135.876 49.2571C135.828 49.1094 135.751 48.9687 135.646 48.8352C135.544 48.7017 135.404 48.5923 135.228 48.5071C135.052 48.4219 134.832 48.3793 134.568 48.3793C134.207 48.3793 133.906 48.4602 133.664 48.6222C133.423 48.7812 133.302 48.9872 133.302 49.2401C133.302 49.4588 133.383 49.6349 133.545 49.7685C133.707 49.902 133.968 50.0114 134.329 50.0966L135.369 50.3352C135.971 50.4744 136.42 50.6889 136.716 50.9787C137.011 51.2685 137.159 51.6449 137.159 52.108C137.159 52.5 137.045 52.8494 136.818 53.1562C136.593 53.4602 136.279 53.6989 135.876 53.8722C135.475 54.0455 135.011 54.1321 134.483 54.1321C133.75 54.1321 133.152 53.9759 132.689 53.6634C132.225 53.348 131.941 52.9006 131.836 52.321L133.068 52.1335C133.145 52.4545 133.302 52.6974 133.541 52.8622C133.779 53.0241 134.091 53.1051 134.474 53.1051C134.892 53.1051 135.225 53.0185 135.475 52.8452C135.725 52.669 135.85 52.4545 135.85 52.2017C135.85 51.9972 135.774 51.8253 135.62 51.6861C135.47 51.5469 135.238 51.4418 134.926 51.3707L133.818 51.1278C133.207 50.9886 132.755 50.767 132.463 50.4631C132.173 50.1591 132.028 49.7741 132.028 49.3082C132.028 48.9219 132.136 48.5838 132.352 48.294C132.568 48.0043 132.866 47.7784 133.247 47.6165C133.627 47.4517 134.064 47.3693 134.555 47.3693C135.262 47.3693 135.819 47.5227 136.225 47.8295C136.632 48.1335 136.9 48.5412 137.031 49.0526ZM143.464 49.0526L142.31 49.2571C142.261 49.1094 142.185 48.9687 142.08 48.8352C141.977 48.7017 141.838 48.5923 141.662 48.5071C141.486 48.4219 141.266 48.3793 141.001 48.3793C140.641 48.3793 140.339 48.4602 140.098 48.6222C139.857 48.7812 139.736 48.9872 139.736 49.2401C139.736 49.4588 139.817 49.6349 139.979 49.7685C140.141 49.902 140.402 50.0114 140.763 50.0966L141.803 50.3352C142.405 50.4744 142.854 50.6889 143.149 50.9787C143.445 51.2685 143.592 51.6449 143.592 52.108C143.592 52.5 143.479 52.8494 143.251 53.1562C143.027 53.4602 142.713 53.6989 142.31 53.8722C141.909 54.0455 141.445 54.1321 140.916 54.1321C140.183 54.1321 139.585 53.9759 139.122 53.6634C138.659 53.348 138.375 52.9006 138.27 52.321L139.501 52.1335C139.578 52.4545 139.736 52.6974 139.974 52.8622C140.213 53.0241 140.524 53.1051 140.908 53.1051C141.325 53.1051 141.659 53.0185 141.909 52.8452C142.159 52.669 142.284 52.4545 142.284 52.2017C142.284 51.9972 142.207 51.8253 142.054 51.6861C141.903 51.5469 141.672 51.4418 141.359 51.3707L140.251 51.1278C139.641 50.9886 139.189 50.767 138.896 50.4631C138.607 50.1591 138.462 49.7741 138.462 49.3082C138.462 48.9219 138.57 48.5838 138.786 48.294C139.001 48.0043 139.3 47.7784 139.68 47.6165C140.061 47.4517 140.497 47.3693 140.989 47.3693C141.696 47.3693 142.253 47.5227 142.659 47.8295C143.065 48.1335 143.334 48.5412 143.464 49.0526ZM148.253 50.3565V50.9915C147.773 50.9915 147.438 51.0909 147.248 51.2898C147.057 51.4886 146.962 51.8153 146.962 52.2699V53.4972C146.962 53.9318 146.912 54.2969 146.813 54.5923C146.716 54.8906 146.567 55.1293 146.365 55.3082C146.164 55.4872 145.908 55.6165 145.598 55.696C145.289 55.7756 144.924 55.8153 144.503 55.8153V54.8054C144.833 54.8054 145.09 54.7557 145.275 54.6562C145.459 54.5597 145.587 54.4091 145.658 54.2045C145.732 54.0028 145.769 53.7457 145.769 53.4332V51.8821C145.769 51.6634 145.801 51.4616 145.867 51.277C145.932 51.0895 146.053 50.9276 146.229 50.7912C146.405 50.652 146.657 50.5455 146.983 50.4716C147.31 50.3949 147.733 50.3565 148.253 50.3565ZM144.503 44.9446C144.924 44.9446 145.289 44.9844 145.598 45.0639C145.908 45.1435 146.164 45.2727 146.365 45.4517C146.567 45.6307 146.716 45.8693 146.813 46.1676C146.912 46.4631 146.962 46.8281 146.962 47.2628V48.4858C146.962 48.9432 147.057 49.2713 147.248 49.4702C147.438 49.6662 147.773 49.7642 148.253 49.7642V50.4034C147.733 50.4034 147.31 50.3651 146.983 50.2884C146.657 50.2116 146.405 50.1051 146.229 49.9688C146.053 49.8324 145.932 49.6719 145.867 49.4872C145.801 49.2997 145.769 49.0966 145.769 48.8778V47.3267C145.769 47.0114 145.732 46.7528 145.658 46.5511C145.587 46.3466 145.459 46.196 145.275 46.0994C145.09 46.0028 144.833 45.9545 144.503 45.9545V44.9446ZM148.253 49.7642V50.9915H147.073V49.7642H148.253Z" fill="#070707"/>
<path d="M92.4176 74.6619V74.0227C92.8977 74.0227 93.233 73.9247 93.4233 73.7287C93.6136 73.5298 93.7088 73.2017 93.7088 72.7443V71.5213C93.7088 71.0866 93.7571 70.7216 93.8537 70.4261C93.9531 70.1278 94.1037 69.8892 94.3054 69.7102C94.5071 69.5312 94.7628 69.402 95.0724 69.3224C95.3821 69.2429 95.7472 69.2031 96.1676 69.2031V70.2131C95.8381 70.2131 95.581 70.2614 95.3963 70.358C95.2116 70.4545 95.0824 70.6051 95.0085 70.8097C94.9375 71.0114 94.902 71.2699 94.902 71.5852V73.1364C94.902 73.3551 94.8693 73.5582 94.804 73.7457C94.7386 73.9304 94.6179 74.0909 94.4418 74.2273C94.2656 74.3636 94.0142 74.4702 93.6875 74.5469C93.3608 74.6236 92.9375 74.6619 92.4176 74.6619ZM96.1676 80.0739C95.7472 80.0739 95.3821 80.0341 95.0724 79.9545C94.7628 79.875 94.5071 79.7457 94.3054 79.5668C94.1037 79.3878 93.9531 79.1506 93.8537 78.8551C93.7571 78.5568 93.7088 78.1903 93.7088 77.7557V76.5284C93.7088 76.0739 93.6136 75.7472 93.4233 75.5483C93.233 75.3494 92.8977 75.25 92.4176 75.25V74.6151C92.9375 74.6151 93.3608 74.6534 93.6875 74.7301C94.0142 74.804 94.2656 74.9105 94.4418 75.0497C94.6179 75.1861 94.7386 75.348 94.804 75.5355C94.8693 75.7202 94.902 75.9219 94.902 76.1406V77.6918C94.902 78.0043 94.9375 78.2628 95.0085 78.4673C95.0824 78.669 95.2116 78.8196 95.3963 78.919C95.581 79.0156 95.8381 79.0639 96.1676 79.0639V80.0739ZM92.4176 75.25V74.0227H93.598V75.25H92.4176ZM100.319 79H97.494V70.2727H100.409C101.264 70.2727 101.998 70.4474 102.612 70.7969C103.225 71.1435 103.696 71.642 104.022 72.2926C104.352 72.9403 104.517 73.7173 104.517 74.6236C104.517 75.5327 104.35 76.3139 104.018 76.9673C103.689 77.6207 103.211 78.1236 102.586 78.4759C101.961 78.8253 101.206 79 100.319 79ZM98.8107 77.8494H100.247C100.912 77.8494 101.464 77.7244 101.904 77.4744C102.345 77.2216 102.674 76.8565 102.893 76.3793C103.112 75.8991 103.221 75.3139 103.221 74.6236C103.221 73.9389 103.112 73.358 102.893 72.8807C102.677 72.4034 102.355 72.0412 101.926 71.794C101.497 71.5469 100.964 71.4233 100.328 71.4233H98.8107V77.8494ZM107.957 79.1449C107.542 79.1449 107.167 79.0682 106.832 78.9148C106.496 78.7585 106.231 78.5327 106.035 78.2372C105.842 77.9418 105.745 77.5795 105.745 77.1506C105.745 76.7812 105.816 76.4773 105.958 76.2386C106.1 76 106.292 75.8111 106.533 75.6719C106.775 75.5327 107.045 75.4276 107.343 75.3565C107.641 75.2855 107.945 75.2315 108.255 75.1946C108.647 75.1491 108.965 75.1122 109.21 75.0838C109.454 75.0526 109.631 75.0028 109.742 74.9347C109.853 74.8665 109.908 74.7557 109.908 74.6023V74.5724C109.908 74.2003 109.803 73.9119 109.593 73.7074C109.386 73.5028 109.076 73.4006 108.664 73.4006C108.235 73.4006 107.897 73.4957 107.65 73.6861C107.406 73.8736 107.237 74.0824 107.143 74.3125L105.945 74.0398C106.087 73.642 106.295 73.321 106.567 73.0767C106.843 72.8295 107.16 72.6506 107.518 72.5398C107.876 72.4261 108.252 72.3693 108.647 72.3693C108.908 72.3693 109.185 72.4006 109.478 72.4631C109.773 72.5227 110.049 72.6335 110.305 72.7955C110.563 72.9574 110.775 73.1889 110.94 73.4901C111.104 73.7884 111.187 74.1761 111.187 74.6534V79H109.942V78.1051H109.891C109.809 78.2699 109.685 78.4318 109.521 78.5909C109.356 78.75 109.144 78.8821 108.886 78.9872C108.627 79.0923 108.317 79.1449 107.957 79.1449ZM108.234 78.1222C108.586 78.1222 108.887 78.0526 109.137 77.9134C109.39 77.7741 109.582 77.5923 109.712 77.3679C109.846 77.1406 109.913 76.8977 109.913 76.6392V75.7955C109.867 75.8409 109.779 75.8835 109.648 75.9233C109.521 75.9602 109.374 75.9929 109.21 76.0213C109.045 76.0469 108.884 76.071 108.728 76.0938C108.572 76.1136 108.441 76.1307 108.336 76.1449C108.089 76.1761 107.863 76.2287 107.658 76.3026C107.457 76.3764 107.295 76.483 107.173 76.6222C107.053 76.7585 106.994 76.9403 106.994 77.1676C106.994 77.483 107.11 77.7216 107.343 77.8835C107.576 78.0426 107.873 78.1222 108.234 78.1222ZM115.939 72.4545V73.4773H112.364V72.4545H115.939ZM113.323 70.8864H114.597V77.0781C114.597 77.3253 114.634 77.5114 114.708 77.6364C114.782 77.7585 114.877 77.8423 114.993 77.8878C115.113 77.9304 115.242 77.9517 115.381 77.9517C115.483 77.9517 115.573 77.9446 115.65 77.9304C115.726 77.9162 115.786 77.9048 115.828 77.8963L116.059 78.9489C115.985 78.9773 115.88 79.0057 115.743 79.0341C115.607 79.0653 115.436 79.0824 115.232 79.0852C114.897 79.0909 114.584 79.0312 114.294 78.9062C114.005 78.7812 113.77 78.5881 113.591 78.3267C113.412 78.0653 113.323 77.7372 113.323 77.3423V70.8864ZM120.099 79.1321C119.455 79.1321 118.899 78.9943 118.433 78.7188C117.97 78.4403 117.612 78.0497 117.359 77.5469C117.109 77.0412 116.984 76.4489 116.984 75.7699C116.984 75.0994 117.109 74.5085 117.359 73.9972C117.612 73.4858 117.964 73.0866 118.416 72.7997C118.871 72.5128 119.402 72.3693 120.01 72.3693C120.379 72.3693 120.737 72.4304 121.084 72.5526C121.43 72.6747 121.741 72.8665 122.017 73.1278C122.293 73.3892 122.51 73.7287 122.669 74.1463C122.828 74.5611 122.908 75.0653 122.908 75.6591V76.1108H117.705V75.1562H121.659C121.659 74.821 121.591 74.5241 121.455 74.2656C121.318 74.0043 121.126 73.7983 120.879 73.6477C120.635 73.4972 120.348 73.4219 120.018 73.4219C119.661 73.4219 119.348 73.5099 119.081 73.6861C118.817 73.8594 118.612 74.0866 118.467 74.3679C118.325 74.6463 118.254 74.9489 118.254 75.2756V76.0213C118.254 76.4588 118.331 76.831 118.484 77.1378C118.641 77.4446 118.858 77.679 119.136 77.8409C119.415 78 119.74 78.0795 120.112 78.0795C120.354 78.0795 120.574 78.0455 120.773 77.9773C120.972 77.9062 121.143 77.8011 121.288 77.6619C121.433 77.5227 121.544 77.3509 121.621 77.1463L122.827 77.3636C122.73 77.7187 122.557 78.0298 122.307 78.2969C122.06 78.5611 121.749 78.767 121.374 78.9148C121.001 79.0597 120.577 79.1321 120.099 79.1321ZM127.581 75.3565V75.9915C127.101 75.9915 126.766 76.0909 126.576 76.2898C126.385 76.4886 126.29 76.8153 126.29 77.2699V78.4972C126.29 78.9318 126.24 79.2969 126.141 79.5923C126.044 79.8906 125.895 80.1293 125.694 80.3082C125.492 80.4872 125.236 80.6165 124.926 80.696C124.617 80.7756 124.252 80.8153 123.831 80.8153V79.8054C124.161 79.8054 124.418 79.7557 124.603 79.6562C124.787 79.5597 124.915 79.4091 124.986 79.2045C125.06 79.0028 125.097 78.7457 125.097 78.4332V76.8821C125.097 76.6634 125.13 76.4616 125.195 76.277C125.26 76.0895 125.381 75.9276 125.557 75.7912C125.733 75.652 125.985 75.5455 126.311 75.4716C126.638 75.3949 127.061 75.3565 127.581 75.3565ZM123.831 69.9446C124.252 69.9446 124.617 69.9844 124.926 70.0639C125.236 70.1435 125.492 70.2727 125.694 70.4517C125.895 70.6307 126.044 70.8693 126.141 71.1676C126.24 71.4631 126.29 71.8281 126.29 72.2628V73.4858C126.29 73.9432 126.385 74.2713 126.576 74.4702C126.766 74.6662 127.101 74.7642 127.581 74.7642V75.4034C127.061 75.4034 126.638 75.3651 126.311 75.2884C125.985 75.2116 125.733 75.1051 125.557 74.9688C125.381 74.8324 125.26 74.6719 125.195 74.4872C125.13 74.2997 125.097 74.0966 125.097 73.8778V72.3267C125.097 72.0114 125.06 71.7528 124.986 71.5511C124.915 71.3466 124.787 71.196 124.603 71.0994C124.418 71.0028 124.161 70.9545 123.831 70.9545V69.9446ZM127.581 74.7642V75.9915H126.401V74.7642H127.581Z" fill="#070707"/>
<path d="M18.696 105.081C18.4631 105.081 18.2628 104.999 18.0952 104.834C17.9276 104.666 17.8438 104.464 17.8438 104.229C17.8438 103.996 17.9276 103.797 18.0952 103.632C18.2628 103.464 18.4631 103.381 18.696 103.381C18.929 103.381 19.1293 103.464 19.2969 103.632C19.4645 103.797 19.5483 103.996 19.5483 104.229C19.5483 104.385 19.5085 104.528 19.429 104.659C19.3523 104.787 19.25 104.889 19.1222 104.966C18.9943 105.043 18.8523 105.081 18.696 105.081ZM22.0945 105.081C21.8615 105.081 21.6612 104.999 21.4936 104.834C21.326 104.666 21.2422 104.464 21.2422 104.229C21.2422 103.996 21.326 103.797 21.4936 103.632C21.6612 103.464 21.8615 103.381 22.0945 103.381C22.3274 103.381 22.5277 103.464 22.6953 103.632C22.8629 103.797 22.9467 103.996 22.9467 104.229C22.9467 104.385 22.907 104.528 22.8274 104.659C22.7507 104.787 22.6484 104.889 22.5206 104.966C22.3928 105.043 22.2507 105.081 22.0945 105.081ZM25.4929 105.081C25.2599 105.081 25.0597 104.999 24.892 104.834C24.7244 104.666 24.6406 104.464 24.6406 104.229C24.6406 103.996 24.7244 103.797 24.892 103.632C25.0597 103.464 25.2599 103.381 25.4929 103.381C25.7259 103.381 25.9261 103.464 26.0938 103.632C26.2614 103.797 26.3452 103.996 26.3452 104.229C26.3452 104.385 26.3054 104.528 26.2259 104.659C26.1491 104.787 26.0469 104.889 25.919 104.966C25.7912 105.043 25.6491 105.081 25.4929 105.081Z" fill="#070707"/>
</svg>
