<svg width="362" height="126" viewBox="0 0 362 126" fill="none" xmlns="http://www.w3.org/2000/svg">
<path d="M37 0.5H135.5V25.5H28.5V9C28.5 4.30558 32.3056 0.5 37 0.5Z" fill="white" stroke="#BFBFBF"/>
<path d="M135.5 0.5V25.5H248.5V0.5H135.5Z" fill="white" stroke="#BFBFBF"/>
<path d="M28.5 25.5V50.5H135.5V25.5H28.5Z" fill="white" stroke="#BFBFBF"/>
<path d="M28.5 50.5V75.5H135.5V50.5H28.5Z" fill="white" stroke="#BFBFBF"/>
<path d="M135.5 25.5V50.5H248.5V25.5H135.5Z" fill="white" stroke="#BFBFBF"/>
<path d="M135.5 50.5V75.5H248.5V50.5H135.5Z" fill="white" stroke="#BFBFBF"/>
<path d="M248.5 25.5V50.5H361.5V25.5H248.5Z" fill="white" stroke="#BFBFBF"/>
<path d="M248.5 50.5V75.5H361.5V50.5H248.5Z" fill="white" stroke="#BFBFBF"/>
<path d="M9 25.5C4.30558 25.5 0.5 29.3056 0.5 34V50.5H28.5V25.5H9Z" fill="white" stroke="#BFBFBF"/>
<path d="M0.5 50.5V75.5H28.5V50.5H0.5Z" fill="white" stroke="#BFBFBF"/>
<path d="M248.5 0.5V25.5H361.5V0.5H248.5Z" fill="white" stroke="#BFBFBF"/>
<path d="M78.4148 17H77.3068L80.5114 8.27273H81.6023L84.8068 17H83.6989L81.0909 9.65341H81.0227L78.4148 17ZM78.8239 13.5909H83.2898V14.5284H78.8239V13.5909Z" fill="#BFBFBF"/>
<path d="M34.9588 43V34.2727H36.2756V38.0653H40.6264V34.2727H41.9474V43H40.6264V39.1946H36.2756V43H34.9588ZM45.6676 43.1449C45.2528 43.1449 44.8778 43.0682 44.5426 42.9148C44.2074 42.7585 43.9418 42.5327 43.7457 42.2372C43.5526 41.9418 43.456 41.5795 43.456 41.1506C43.456 40.7812 43.527 40.4773 43.669 40.2386C43.8111 40 44.0028 39.8111 44.2443 39.6719C44.4858 39.5327 44.7557 39.4276 45.054 39.3565C45.3523 39.2855 45.6563 39.2315 45.9659 39.1946C46.358 39.1491 46.6761 39.1122 46.9205 39.0838C47.1648 39.0526 47.3423 39.0028 47.4531 38.9347C47.5639 38.8665 47.6193 38.7557 47.6193 38.6023V38.5724C47.6193 38.2003 47.5142 37.9119 47.304 37.7074C47.0966 37.5028 46.7869 37.4006 46.375 37.4006C45.946 37.4006 45.608 37.4957 45.3608 37.6861C45.1165 37.8736 44.9474 38.0824 44.8537 38.3125L43.6562 38.0398C43.7983 37.642 44.0057 37.321 44.2784 37.0767C44.554 36.8295 44.8707 36.6506 45.2287 36.5398C45.5866 36.4261 45.9631 36.3693 46.358 36.3693C46.6193 36.3693 46.8963 36.4006 47.1889 36.4631C47.4844 36.5227 47.7599 36.6335 48.0156 36.7955C48.2741 36.9574 48.4858 37.1889 48.6506 37.4901C48.8153 37.7884 48.8977 38.1761 48.8977 38.6534V43H47.6534V42.1051H47.6023C47.5199 42.2699 47.3963 42.4318 47.2315 42.5909C47.0668 42.75 46.8551 42.8821 46.5966 42.9872C46.3381 43.0923 46.0284 43.1449 45.6676 43.1449ZM45.9446 42.1222C46.2969 42.1222 46.598 42.0526 46.848 41.9134C47.1009 41.7741 47.2926 41.5923 47.4233 41.3679C47.5568 41.1406 47.6236 40.8977 47.6236 40.6392V39.7955C47.5781 39.8409 47.4901 39.8835 47.3594 39.9233C47.2315 39.9602 47.0852 39.9929 46.9205 40.0213C46.7557 40.0469 46.5952 40.071 46.4389 40.0938C46.2827 40.1136 46.152 40.1307 46.0469 40.1449C45.7997 40.1761 45.5739 40.2287 45.3693 40.3026C45.1676 40.3764 45.0057 40.483 44.8835 40.6222C44.7642 40.7585 44.7045 40.9403 44.7045 41.1676C44.7045 41.483 44.821 41.7216 45.054 41.8835C45.2869 42.0426 45.5838 42.1222 45.9446 42.1222ZM50.207 41.2699H51.511C51.5281 41.5369 51.6488 41.7429 51.8732 41.8878C52.1005 42.0327 52.3945 42.1051 52.7553 42.1051C53.1218 42.1051 53.4343 42.027 53.6928 41.8707C53.9513 41.7116 54.0806 41.4659 54.0806 41.1335C54.0806 40.9347 54.0309 40.7614 53.9315 40.6136C53.8349 40.4631 53.6971 40.3466 53.5181 40.2642C53.342 40.1818 53.1332 40.1406 52.8917 40.1406H51.8263V39.1392H52.8917C53.2525 39.1392 53.5224 39.0568 53.7013 38.892C53.8803 38.7273 53.9698 38.5213 53.9698 38.2741C53.9698 38.0071 53.8732 37.7926 53.68 37.6307C53.4897 37.4659 53.2241 37.3835 52.8832 37.3835C52.5366 37.3835 52.2482 37.4616 52.0181 37.6179C51.788 37.7713 51.6673 37.9702 51.6559 38.2145H50.369C50.3775 37.848 50.4883 37.527 50.7013 37.2514C50.9173 36.973 51.207 36.7571 51.5707 36.6037C51.9371 36.4474 52.3533 36.3693 52.8192 36.3693C53.305 36.3693 53.7255 36.4474 54.0806 36.6037C54.4357 36.7599 54.7099 36.9759 54.9031 37.2514C55.0991 37.527 55.1971 37.8437 55.1971 38.2017C55.1971 38.5625 55.0891 38.858 54.8732 39.0881C54.6602 39.3153 54.3817 39.4787 54.038 39.5781V39.6463C54.2908 39.6634 54.5153 39.7401 54.7113 39.8764C54.9073 40.0128 55.0607 40.1932 55.1715 40.4176C55.2823 40.642 55.3377 40.8963 55.3377 41.1804C55.3377 41.581 55.2269 41.9276 55.0053 42.2202C54.7866 42.5128 54.4826 42.7386 54.0934 42.8977C53.707 43.054 53.2653 43.1321 52.7681 43.1321C52.2852 43.1321 51.8519 43.0568 51.4684 42.9062C51.0877 42.7528 50.7852 42.5369 50.5607 42.2585C50.3391 41.9801 50.2212 41.6506 50.207 41.2699ZM56.6534 43V36.4545H59.3679C60.1065 36.4545 60.6918 36.6122 61.1236 36.9276C61.5554 37.2401 61.7713 37.6648 61.7713 38.2017C61.7713 38.5852 61.6491 38.8892 61.4048 39.1136C61.1605 39.3381 60.8366 39.4886 60.4332 39.5653C60.7259 39.5994 60.9943 39.6875 61.2386 39.8295C61.483 39.9687 61.679 40.1562 61.8267 40.392C61.9773 40.6278 62.0526 40.9091 62.0526 41.2358C62.0526 41.5824 61.9631 41.8892 61.7841 42.1562C61.6051 42.4205 61.3452 42.6278 61.0043 42.7784C60.6662 42.9261 60.2585 43 59.7812 43H56.6534ZM57.8509 41.9347H59.7812C60.0966 41.9347 60.3438 41.8594 60.5227 41.7088C60.7017 41.5582 60.7912 41.3537 60.7912 41.0952C60.7912 40.7912 60.7017 40.5526 60.5227 40.3793C60.3438 40.2031 60.0966 40.1151 59.7812 40.1151H57.8509V41.9347ZM57.8509 39.1818H59.3807C59.6193 39.1818 59.8239 39.1477 59.9943 39.0795C60.1676 39.0114 60.2997 38.9148 60.3906 38.7898C60.4844 38.6619 60.5312 38.5114 60.5312 38.3381C60.5312 38.0852 60.4276 37.8878 60.2202 37.7457C60.0128 37.6037 59.7287 37.5327 59.3679 37.5327H57.8509V39.1818ZM65.3551 43.1449C64.9403 43.1449 64.5653 43.0682 64.2301 42.9148C63.8949 42.7585 63.6293 42.5327 63.4332 42.2372C63.2401 41.9418 63.1435 41.5795 63.1435 41.1506C63.1435 40.7812 63.2145 40.4773 63.3565 40.2386C63.4986 40 63.6903 39.8111 63.9318 39.6719C64.1733 39.5327 64.4432 39.4276 64.7415 39.3565C65.0398 39.2855 65.3438 39.2315 65.6534 39.1946C66.0455 39.1491 66.3636 39.1122 66.608 39.0838C66.8523 39.0526 67.0298 39.0028 67.1406 38.9347C67.2514 38.8665 67.3068 38.7557 67.3068 38.6023V38.5724C67.3068 38.2003 67.2017 37.9119 66.9915 37.7074C66.7841 37.5028 66.4744 37.4006 66.0625 37.4006C65.6335 37.4006 65.2955 37.4957 65.0483 37.6861C64.804 37.8736 64.6349 38.0824 64.5412 38.3125L63.3438 38.0398C63.4858 37.642 63.6932 37.321 63.9659 37.0767C64.2415 36.8295 64.5582 36.6506 64.9162 36.5398C65.2741 36.4261 65.6506 36.3693 66.0455 36.3693C66.3068 36.3693 66.5838 36.4006 66.8764 36.4631C67.1719 36.5227 67.4474 36.6335 67.7031 36.7955C67.9616 36.9574 68.1733 37.1889 68.3381 37.4901C68.5028 37.7884 68.5852 38.1761 68.5852 38.6534V43H67.3409V42.1051H67.2898C67.2074 42.2699 67.0838 42.4318 66.919 42.5909C66.7543 42.75 66.5426 42.8821 66.2841 42.9872C66.0256 43.0923 65.7159 43.1449 65.3551 43.1449ZM65.6321 42.1222C65.9844 42.1222 66.2855 42.0526 66.5355 41.9134C66.7884 41.7741 66.9801 41.5923 67.1108 41.3679C67.2443 41.1406 67.3111 40.8977 67.3111 40.6392V39.7955C67.2656 39.8409 67.1776 39.8835 67.0469 39.9233C66.919 39.9602 66.7727 39.9929 66.608 40.0213C66.4432 40.0469 66.2827 40.071 66.1264 40.0938C65.9702 40.1136 65.8395 40.1307 65.7344 40.1449C65.4872 40.1761 65.2614 40.2287 65.0568 40.3026C64.8551 40.3764 64.6932 40.483 64.571 40.6222C64.4517 40.7585 64.392 40.9403 64.392 41.1676C64.392 41.483 64.5085 41.7216 64.7415 41.8835C64.9744 42.0426 65.2713 42.1222 65.6321 42.1222ZM74.7184 39.1776V40.2812H71.1729V39.1776H74.7184ZM71.5309 36.4545V43H70.2823V36.4545H71.5309ZM75.609 36.4545V43H74.3647V36.4545H75.609ZM78.5621 41.2145L81.4471 36.4545H82.8192V43H81.5707V38.2358L78.6985 43H77.3136V36.4545H78.5621V41.2145ZM87.3533 43.1321C86.7085 43.1321 86.1531 42.9943 85.6871 42.7188C85.2241 42.4403 84.8661 42.0497 84.6133 41.5469C84.3633 41.0412 84.2383 40.4489 84.2383 39.7699C84.2383 39.0994 84.3633 38.5085 84.6133 37.9972C84.8661 37.4858 85.2184 37.0866 85.6701 36.7997C86.1246 36.5128 86.6559 36.3693 87.2638 36.3693C87.6332 36.3693 87.9911 36.4304 88.3377 36.5526C88.6843 36.6747 88.9954 36.8665 89.271 37.1278C89.5465 37.3892 89.7638 37.7287 89.9229 38.1463C90.082 38.5611 90.1616 39.0653 90.1616 39.6591V40.1108H84.9585V39.1562H88.913C88.913 38.821 88.8448 38.5241 88.7085 38.2656C88.5721 38.0043 88.3803 37.7983 88.1332 37.6477C87.8888 37.4972 87.6019 37.4219 87.2724 37.4219C86.9144 37.4219 86.6019 37.5099 86.3349 37.6861C86.0707 37.8594 85.8661 38.0866 85.7212 38.3679C85.5792 38.6463 85.5082 38.9489 85.5082 39.2756V40.0213C85.5082 40.4588 85.5849 40.831 85.7383 41.1378C85.8945 41.4446 86.1119 41.679 86.3903 41.8409C86.6687 42 86.994 42.0795 87.3661 42.0795C87.6076 42.0795 87.8278 42.0455 88.0266 41.9773C88.2255 41.9062 88.3974 41.8011 88.5423 41.6619C88.6871 41.5227 88.7979 41.3509 88.8746 41.1463L90.0806 41.3636C89.984 41.7187 89.8107 42.0298 89.5607 42.2969C89.3136 42.5611 89.0025 42.767 88.6275 42.9148C88.2553 43.0597 87.8306 43.1321 87.3533 43.1321Z" fill="#070707"/>
<path d="M142.696 42H141.298L144.439 33.2727H145.96L149.101 42H147.703L145.236 34.858H145.168L142.696 42ZM142.93 38.5824H147.464V39.6903H142.93V38.5824ZM149.62 43.8878V40.8963H150.152C150.289 40.7713 150.404 40.6222 150.498 40.4489C150.594 40.2756 150.675 40.0696 150.74 39.831C150.809 39.5923 150.865 39.3139 150.911 38.9957C150.956 38.6747 150.996 38.3082 151.03 37.8963L151.235 35.4545H155.684V40.8963H156.689V43.8878H155.445V42H150.881V43.8878H149.62ZM151.516 40.8963H154.439V36.5455H152.377L152.24 37.8963C152.175 38.5838 152.093 39.1804 151.993 39.6861C151.894 40.1889 151.735 40.5923 151.516 40.8963ZM157.935 44.4545V35.4545H159.179V36.5156H159.286C159.359 36.3793 159.466 36.2216 159.605 36.0426C159.744 35.8636 159.938 35.7074 160.185 35.5739C160.432 35.4375 160.759 35.3693 161.165 35.3693C161.693 35.3693 162.165 35.5028 162.58 35.7699C162.994 36.0369 163.32 36.4219 163.555 36.9247C163.794 37.4276 163.913 38.0327 163.913 38.7401C163.913 39.4474 163.795 40.054 163.56 40.5597C163.324 41.0625 163 41.4503 162.588 41.723C162.176 41.9929 161.706 42.1278 161.178 42.1278C160.78 42.1278 160.455 42.0611 160.202 41.9276C159.952 41.794 159.756 41.6378 159.614 41.4588C159.472 41.2798 159.362 41.1207 159.286 40.9815H159.209V44.4545H157.935ZM159.183 38.7273C159.183 39.1875 159.25 39.5909 159.384 39.9375C159.517 40.2841 159.71 40.5554 159.963 40.7514C160.216 40.9446 160.526 41.0412 160.892 41.0412C161.273 41.0412 161.591 40.9403 161.847 40.7386C162.102 40.5341 162.295 40.2571 162.426 39.9077C162.56 39.5582 162.626 39.1648 162.626 38.7273C162.626 38.2955 162.561 37.9077 162.43 37.5639C162.303 37.2202 162.109 36.9489 161.851 36.75C161.595 36.5511 161.276 36.4517 160.892 36.4517C160.523 36.4517 160.21 36.5469 159.955 36.7372C159.702 36.9276 159.51 37.1932 159.379 37.5341C159.249 37.875 159.183 38.2727 159.183 38.7273ZM168.162 42.1321C167.517 42.1321 166.962 41.9943 166.496 41.7188C166.033 41.4403 165.675 41.0497 165.422 40.5469C165.172 40.0412 165.047 39.4489 165.047 38.7699C165.047 38.0994 165.172 37.5085 165.422 36.9972C165.675 36.4858 166.027 36.0866 166.479 35.7997C166.933 35.5128 167.464 35.3693 168.072 35.3693C168.442 35.3693 168.8 35.4304 169.146 35.5526C169.493 35.6747 169.804 35.8665 170.08 36.1278C170.355 36.3892 170.572 36.7287 170.732 37.1463C170.891 37.5611 170.97 38.0653 170.97 38.6591V39.1108H165.767V38.1562H169.722C169.722 37.821 169.653 37.5241 169.517 37.2656C169.381 37.0043 169.189 36.7983 168.942 36.6477C168.697 36.4972 168.411 36.4219 168.081 36.4219C167.723 36.4219 167.411 36.5099 167.143 36.6861C166.879 36.8594 166.675 37.0866 166.53 37.3679C166.388 37.6463 166.317 37.9489 166.317 38.2756V39.0213C166.317 39.4588 166.393 39.831 166.547 40.1378C166.703 40.4446 166.92 40.679 167.199 40.8409C167.477 41 167.803 41.0795 168.175 41.0795C168.416 41.0795 168.636 41.0455 168.835 40.9773C169.034 40.9062 169.206 40.8011 169.351 40.6619C169.496 40.5227 169.607 40.3509 169.683 40.1463L170.889 40.3636C170.793 40.7187 170.619 41.0298 170.369 41.2969C170.122 41.5611 169.811 41.767 169.436 41.9148C169.064 42.0597 168.639 42.1321 168.162 42.1321ZM175.141 42.1321C174.507 42.1321 173.962 41.9886 173.505 41.7017C173.05 41.4119 172.701 41.0128 172.456 40.5043C172.212 39.9957 172.09 39.4134 172.09 38.7571C172.09 38.0923 172.215 37.5057 172.465 36.9972C172.715 36.4858 173.067 36.0866 173.522 35.7997C173.976 35.5128 174.512 35.3693 175.128 35.3693C175.625 35.3693 176.069 35.4616 176.458 35.6463C176.847 35.8281 177.161 36.0838 177.4 36.4134C177.641 36.7429 177.784 37.1278 177.83 37.5682H176.59C176.522 37.2614 176.365 36.9972 176.121 36.7756C175.88 36.554 175.556 36.4432 175.15 36.4432C174.794 36.4432 174.483 36.5369 174.216 36.7244C173.952 36.9091 173.746 37.1733 173.598 37.517C173.451 37.858 173.377 38.2614 173.377 38.7273C173.377 39.2045 173.449 39.6165 173.594 39.9631C173.739 40.3097 173.944 40.5781 174.208 40.7685C174.475 40.9588 174.789 41.054 175.15 41.054C175.391 41.054 175.61 41.0099 175.806 40.9219C176.005 40.831 176.171 40.7017 176.304 40.5341C176.441 40.3665 176.536 40.1648 176.59 39.929H177.83C177.784 40.3523 177.647 40.7301 177.417 41.0625C177.186 41.3949 176.878 41.6562 176.492 41.8466C176.108 42.0369 175.658 42.1321 175.141 42.1321Z" fill="#070707"/>
<path d="M254.298 45.1094V41.8835H254.874C255.07 41.7187 255.253 41.4844 255.423 41.1804C255.594 40.8764 255.739 40.4659 255.858 39.9489C255.977 39.4318 256.06 38.7685 256.105 37.9588L256.31 34.2727H261.692V41.8835H262.68V45.0966H261.419V43H255.56V45.1094H254.298ZM256.425 41.8835H260.43V35.4062H257.503L257.366 37.9588C257.33 38.5753 257.268 39.1293 257.183 39.6207C257.101 40.1122 256.994 40.5469 256.864 40.9247C256.736 41.2997 256.589 41.6193 256.425 41.8835ZM265.925 43.1449C265.511 43.1449 265.136 43.0682 264.8 42.9148C264.465 42.7585 264.2 42.5327 264.004 42.2372C263.81 41.9418 263.714 41.5795 263.714 41.1506C263.714 40.7812 263.785 40.4773 263.927 40.2386C264.069 40 264.261 39.8111 264.502 39.6719C264.744 39.5327 265.013 39.4276 265.312 39.3565C265.61 39.2855 265.914 39.2315 266.224 39.1946C266.616 39.1491 266.934 39.1122 267.178 39.0838C267.423 39.0526 267.6 39.0028 267.711 38.9347C267.822 38.8665 267.877 38.7557 267.877 38.6023V38.5724C267.877 38.2003 267.772 37.9119 267.562 37.7074C267.354 37.5028 267.045 37.4006 266.633 37.4006C266.204 37.4006 265.866 37.4957 265.619 37.6861C265.374 37.8736 265.205 38.0824 265.112 38.3125L263.914 38.0398C264.056 37.642 264.263 37.321 264.536 37.0767C264.812 36.8295 265.129 36.6506 265.487 36.5398C265.844 36.4261 266.221 36.3693 266.616 36.3693C266.877 36.3693 267.154 36.4006 267.447 36.4631C267.742 36.5227 268.018 36.6335 268.273 36.7955C268.532 36.9574 268.744 37.1889 268.908 37.4901C269.073 37.7884 269.156 38.1761 269.156 38.6534V43H267.911V42.1051H267.86C267.778 42.2699 267.654 42.4318 267.489 42.5909C267.325 42.75 267.113 42.8821 266.854 42.9872C266.596 43.0923 266.286 43.1449 265.925 43.1449ZM266.202 42.1222C266.555 42.1222 266.856 42.0526 267.106 41.9134C267.359 41.7741 267.55 41.5923 267.681 41.3679C267.815 41.1406 267.881 40.8977 267.881 40.6392V39.7955C267.836 39.8409 267.748 39.8835 267.617 39.9233C267.489 39.9602 267.343 39.9929 267.178 40.0213C267.013 40.0469 266.853 40.071 266.697 40.0938C266.54 40.1136 266.41 40.1307 266.305 40.1449C266.058 40.1761 265.832 40.2287 265.627 40.3026C265.425 40.3764 265.263 40.483 265.141 40.6222C265.022 40.7585 264.962 40.9403 264.962 41.1676C264.962 41.483 265.079 41.7216 265.312 41.8835C265.545 42.0426 265.842 42.1222 266.202 42.1222ZM270.041 37.554V36.4545H275.564V37.554H273.429V43H272.184V37.554H270.041ZM278.511 43.1449C278.097 43.1449 277.722 43.0682 277.386 42.9148C277.051 42.7585 276.786 42.5327 276.589 42.2372C276.396 41.9418 276.3 41.5795 276.3 41.1506C276.3 40.7812 276.371 40.4773 276.513 40.2386C276.655 40 276.847 39.8111 277.088 39.6719C277.33 39.5327 277.599 39.4276 277.898 39.3565C278.196 39.2855 278.5 39.2315 278.81 39.1946C279.202 39.1491 279.52 39.1122 279.764 39.0838C280.009 39.0526 280.186 39.0028 280.297 38.9347C280.408 38.8665 280.463 38.7557 280.463 38.6023V38.5724C280.463 38.2003 280.358 37.9119 280.148 37.7074C279.94 37.5028 279.631 37.4006 279.219 37.4006C278.79 37.4006 278.452 37.4957 278.205 37.6861C277.96 37.8736 277.791 38.0824 277.697 38.3125L276.5 38.0398C276.642 37.642 276.849 37.321 277.122 37.0767C277.398 36.8295 277.714 36.6506 278.072 36.5398C278.43 36.4261 278.807 36.3693 279.202 36.3693C279.463 36.3693 279.74 36.4006 280.033 36.4631C280.328 36.5227 280.604 36.6335 280.859 36.7955C281.118 36.9574 281.33 37.1889 281.494 37.4901C281.659 37.7884 281.741 38.1761 281.741 38.6534V43H280.497V42.1051H280.446C280.364 42.2699 280.24 42.4318 280.075 42.5909C279.911 42.75 279.699 42.8821 279.44 42.9872C279.182 43.0923 278.872 43.1449 278.511 43.1449ZM278.788 42.1222C279.141 42.1222 279.442 42.0526 279.692 41.9134C279.945 41.7741 280.136 41.5923 280.267 41.3679C280.401 41.1406 280.467 40.8977 280.467 40.6392V39.7955C280.422 39.8409 280.334 39.8835 280.203 39.9233C280.075 39.9602 279.929 39.9929 279.764 40.0213C279.599 40.0469 279.439 40.071 279.283 40.0938C279.126 40.1136 278.996 40.1307 278.891 40.1449C278.643 40.1761 278.418 40.2287 278.213 40.3026C278.011 40.3764 277.849 40.483 277.727 40.6222C277.608 40.7585 277.548 40.9403 277.548 41.1676C277.548 41.483 277.665 41.7216 277.898 41.8835C278.131 42.0426 278.428 42.1222 278.788 42.1222Z" fill="#070707"/>
<path d="M35.4134 66H34.2486L36.8658 58.7273H38.1335L40.7507 66H39.5859L37.5298 60.0483H37.473L35.4134 66ZM35.6087 63.152H39.3871V64.0753H35.6087V63.152ZM47.7766 62.3636C47.7766 63.1402 47.6346 63.8078 47.3505 64.3665C47.0664 64.9228 46.677 65.3513 46.1822 65.652C45.6897 65.9503 45.1299 66.0994 44.5025 66.0994C43.8728 66.0994 43.3105 65.9503 42.8157 65.652C42.3233 65.3513 41.935 64.9216 41.6509 64.3629C41.3668 63.8042 41.2248 63.1378 41.2248 62.3636C41.2248 61.5871 41.3668 60.9207 41.6509 60.3643C41.935 59.8056 42.3233 59.3771 42.8157 59.0788C43.3105 58.7782 43.8728 58.6278 44.5025 58.6278C45.1299 58.6278 45.6897 58.7782 46.1822 59.0788C46.677 59.3771 47.0664 59.8056 47.3505 60.3643C47.6346 60.9207 47.7766 61.5871 47.7766 62.3636ZM46.69 62.3636C46.69 61.7718 46.5941 61.2734 46.4023 60.8686C46.2129 60.4614 45.9525 60.1536 45.6211 59.9453C45.292 59.7346 44.9192 59.6293 44.5025 59.6293C44.0835 59.6293 43.7094 59.7346 43.3803 59.9453C43.0513 60.1536 42.7908 60.4614 42.5991 60.8686C42.4097 61.2734 42.315 61.7718 42.315 62.3636C42.315 62.9555 42.4097 63.455 42.5991 63.8622C42.7908 64.267 43.0513 64.5748 43.3803 64.7855C43.7094 64.9938 44.0835 65.098 44.5025 65.098C44.9192 65.098 45.292 64.9938 45.6211 64.7855C45.9525 64.5748 46.2129 64.267 46.4023 63.8622C46.5941 63.455 46.69 62.9555 46.69 62.3636ZM52.5121 58.7273V61.3161H51.6314V58.7273H52.5121ZM54.3374 58.7273V61.3161H53.4567V58.7273H54.3374ZM55.7853 66V58.7273H58.4487C58.9648 58.7273 59.3921 58.8125 59.7306 58.983C60.0692 59.151 60.3225 59.3795 60.4906 59.6683C60.6587 59.9548 60.7427 60.2779 60.7427 60.6378C60.7427 60.9408 60.6871 61.1965 60.5758 61.4048C60.4645 61.6108 60.3154 61.7765 60.1284 61.902C59.9437 62.0251 59.7401 62.1151 59.5176 62.1719V62.2429C59.7591 62.2547 59.9946 62.3329 60.2243 62.4773C60.4563 62.6193 60.648 62.8217 60.7995 63.0845C60.9511 63.3473 61.0268 63.6669 61.0268 64.0433C61.0268 64.415 60.9392 64.7488 60.764 65.0447C60.5912 65.3383 60.3237 65.5715 59.9615 65.7443C59.5993 65.9148 59.1364 66 58.573 66H55.7853ZM56.8826 65.0589H58.4664C58.992 65.0589 59.3684 64.9571 59.5957 64.7536C59.823 64.55 59.9366 64.2955 59.9366 63.9901C59.9366 63.7604 59.8786 63.5497 59.7626 63.358C59.6466 63.1662 59.4809 63.0135 59.2654 62.8999C59.0524 62.7862 58.7991 62.7294 58.5055 62.7294H56.8826V65.0589ZM56.8826 61.8736H58.3528C58.599 61.8736 58.8204 61.8262 59.0169 61.7315C59.2157 61.6368 59.3732 61.5043 59.4892 61.3338C59.6075 61.161 59.6667 60.9574 59.6667 60.723C59.6667 60.4223 59.5614 60.1702 59.3507 59.9666C59.14 59.763 58.8168 59.6612 58.3812 59.6612H56.8826V61.8736ZM63.2836 64.5121L65.6877 60.5455H66.8311V66H65.7907V62.0298L63.3972 66H62.2431V60.5455H63.2836V64.5121ZM71.9554 62.8146V63.7344H69.0009V62.8146H71.9554ZM69.2992 60.5455V66H68.2587V60.5455H69.2992ZM72.6976 60.5455V66H71.6607V60.5455H72.6976ZM73.5854 67.5732V65.0803H74.0293C74.1429 64.9761 74.2388 64.8518 74.3169 64.7074C74.3974 64.563 74.4649 64.3913 74.5194 64.1925C74.5762 63.9936 74.6235 63.7616 74.6614 63.4964C74.6993 63.2289 74.7324 62.9235 74.7608 62.5803L74.9313 60.5455H78.6387V65.0803H79.4767V67.5732H78.4398V66H74.6365V67.5732H73.5854ZM75.1657 65.0803H77.6017V61.4545H75.883L75.7694 62.5803C75.7149 63.1532 75.6462 63.6503 75.5634 64.0717C75.4805 64.4908 75.348 64.8269 75.1657 65.0803ZM83.5756 64.6861L85.337 60.5455H86.2532L83.9698 66H83.1815L80.9442 60.5455H81.8498L83.5756 64.6861ZM81.555 60.5455V66H80.5146V60.5455H81.555ZM85.6246 66V60.5455H86.658V66H85.6246ZM89.6605 66.1207C89.3149 66.1207 89.0024 66.0568 88.723 65.929C88.4437 65.7988 88.2223 65.6106 88.0589 65.3643C87.898 65.1181 87.8175 64.8163 87.8175 64.4588C87.8175 64.151 87.8767 63.8977 87.995 63.6989C88.1134 63.5 88.2732 63.3426 88.4744 63.2266C88.6757 63.1106 88.9006 63.023 89.1491 62.9638C89.3977 62.9046 89.651 62.8596 89.9091 62.8288C90.2358 62.791 90.5009 62.7602 90.7045 62.7365C90.9081 62.7105 91.0561 62.669 91.1484 62.6122C91.2408 62.5554 91.2869 62.4631 91.2869 62.3352V62.3104C91.2869 62.0002 91.1993 61.7599 91.0241 61.5895C90.8513 61.419 90.5933 61.3338 90.25 61.3338C89.8925 61.3338 89.6108 61.4131 89.4048 61.5717C89.2012 61.728 89.0604 61.902 88.9822 62.0938L87.9844 61.8665C88.1027 61.535 88.2756 61.2675 88.5028 61.0639C88.7325 60.858 88.9964 60.7088 89.2947 60.6165C89.593 60.5218 89.9067 60.4744 90.2358 60.4744C90.4536 60.4744 90.6844 60.5005 90.9283 60.5526C91.1745 60.6023 91.4041 60.6946 91.6172 60.8295C91.8326 60.9645 92.009 61.1574 92.1463 61.4084C92.2836 61.657 92.3523 61.9801 92.3523 62.3778V66H91.3153V65.2543H91.2727C91.2041 65.3916 91.1011 65.5265 90.9638 65.6591C90.8265 65.7917 90.6501 65.9018 90.4347 65.9893C90.2192 66.0769 89.9612 66.1207 89.6605 66.1207ZM89.8913 65.2685C90.1849 65.2685 90.4358 65.2105 90.6442 65.0945C90.8549 64.9785 91.0147 64.8269 91.1236 64.6399C91.2348 64.4505 91.2905 64.2481 91.2905 64.0327V63.3295C91.2526 63.3674 91.1792 63.4029 91.0703 63.4361C90.9638 63.4669 90.8419 63.4941 90.7045 63.5178C90.5672 63.5391 90.4335 63.5592 90.3033 63.5781C90.1731 63.5947 90.0642 63.6089 89.9766 63.6207C89.7706 63.6468 89.5824 63.6906 89.4119 63.7521C89.2438 63.8137 89.1089 63.9025 89.0071 64.0185C88.9077 64.1321 88.858 64.2836 88.858 64.473C88.858 64.7358 88.955 64.9347 89.1491 65.0696C89.3433 65.2022 89.5907 65.2685 89.8913 65.2685ZM96.0641 66.1101C95.5362 66.1101 95.0816 65.9905 94.7005 65.7514C94.3217 65.5099 94.0305 65.1773 93.8269 64.7536C93.6233 64.3298 93.5215 63.8445 93.5215 63.2976C93.5215 62.7436 93.6257 62.2547 93.834 61.831C94.0423 61.4048 94.3359 61.0722 94.7147 60.8331C95.0935 60.594 95.5397 60.4744 96.0534 60.4744C96.4677 60.4744 96.8371 60.5514 97.1614 60.7053C97.4857 60.8568 97.7473 61.0698 97.9462 61.3445C98.1474 61.6191 98.267 61.9399 98.3049 62.3068H97.2715C97.2147 62.0511 97.0845 61.831 96.8809 61.6463C96.6796 61.4616 96.4097 61.3693 96.0712 61.3693C95.7753 61.3693 95.516 61.4474 95.2935 61.6037C95.0733 61.7576 94.9017 61.9777 94.7786 62.2642C94.6555 62.5483 94.5939 62.8845 94.5939 63.2727C94.5939 63.6705 94.6543 64.0137 94.775 64.3026C94.8958 64.5914 95.0662 64.8151 95.2864 64.9737C95.5089 65.1323 95.7705 65.2116 96.0712 65.2116C96.2724 65.2116 96.4547 65.175 96.6181 65.1016C96.7838 65.0258 96.9223 64.9181 97.0336 64.7784C97.1472 64.6387 97.2265 64.4706 97.2715 64.2741H98.3049C98.267 64.6269 98.1522 64.9418 97.9604 65.2188C97.7686 65.4957 97.5118 65.7135 97.1898 65.8722C96.8702 66.0308 96.495 66.1101 96.0641 66.1101ZM99.0275 61.4616V60.5455H103.63V61.4616H101.851V66H100.814V61.4616H99.0275ZM106.85 66.1101C106.312 66.1101 105.85 65.9953 105.461 65.7656C105.075 65.5336 104.777 65.2081 104.566 64.7891C104.358 64.3677 104.254 63.8741 104.254 63.3082C104.254 62.7495 104.358 62.2571 104.566 61.831C104.777 61.4048 105.071 61.0722 105.447 60.8331C105.826 60.594 106.269 60.4744 106.775 60.4744C107.083 60.4744 107.381 60.5253 107.67 60.6271C107.959 60.7289 108.218 60.8887 108.448 61.1065C108.677 61.3243 108.859 61.6072 108.991 61.9553C109.124 62.3009 109.19 62.7211 109.19 63.2159V63.5923H104.854V62.7969H108.15C108.15 62.5175 108.093 62.2701 107.979 62.0547C107.865 61.8369 107.706 61.6652 107.5 61.5398C107.296 61.4143 107.057 61.3516 106.782 61.3516C106.484 61.3516 106.224 61.425 106.001 61.5717C105.781 61.7161 105.61 61.9055 105.49 62.1399C105.371 62.3719 105.312 62.6241 105.312 62.8963V63.5178C105.312 63.8823 105.376 64.1925 105.504 64.4482C105.634 64.7038 105.815 64.8991 106.047 65.0341C106.279 65.1667 106.55 65.233 106.86 65.233C107.062 65.233 107.245 65.2045 107.411 65.1477C107.577 65.0885 107.72 65.0009 107.841 64.8849C107.961 64.7689 108.054 64.6257 108.118 64.4553L109.123 64.6364C109.042 64.9323 108.898 65.1915 108.689 65.4141C108.483 65.6342 108.224 65.8059 107.912 65.929C107.601 66.0497 107.248 66.1101 106.85 66.1101ZM110.368 68.0455V60.5455H111.405V61.4297H111.494C111.555 61.3161 111.644 61.1847 111.76 61.0355C111.876 60.8864 112.037 60.7562 112.243 60.6449C112.449 60.5312 112.721 60.4744 113.06 60.4744C113.5 60.4744 113.893 60.5857 114.239 60.8082C114.584 61.0308 114.856 61.3516 115.052 61.7706C115.251 62.1896 115.35 62.6939 115.35 63.2834C115.35 63.8729 115.252 64.3783 115.056 64.7997C114.859 65.2187 114.589 65.5419 114.246 65.7692C113.903 65.9941 113.511 66.1065 113.07 66.1065C112.739 66.1065 112.468 66.0509 112.257 65.9396C112.049 65.8284 111.886 65.6982 111.767 65.549C111.649 65.3999 111.558 65.2673 111.494 65.1513H111.43V68.0455H110.368ZM111.409 63.2727C111.409 63.6562 111.464 63.9924 111.575 64.2812C111.687 64.5701 111.848 64.7962 112.058 64.9595C112.269 65.1205 112.527 65.201 112.833 65.201C113.15 65.201 113.415 65.117 113.628 64.9489C113.841 64.7784 114.002 64.5476 114.111 64.2564C114.222 63.9652 114.278 63.6373 114.278 63.2727C114.278 62.9129 114.223 62.5897 114.115 62.3033C114.008 62.0168 113.847 61.7907 113.632 61.625C113.419 61.4593 113.152 61.3764 112.833 61.3764C112.525 61.3764 112.264 61.4557 112.051 61.6143C111.841 61.773 111.681 61.9943 111.572 62.2784C111.463 62.5625 111.409 62.8939 111.409 63.2727ZM117.346 58.7273V61.3161H116.465V58.7273H117.346ZM119.171 58.7273V61.3161H118.291V58.7273H119.171Z" fill="#070707"/>
<path d="M141.385 68.0455C141.226 68.0455 141.082 68.0324 140.952 68.0064C140.821 67.9827 140.724 67.9567 140.661 67.9283L140.916 67.0582C141.11 67.1103 141.283 67.1328 141.435 67.1257C141.586 67.1186 141.72 67.0618 141.836 66.9553C141.954 66.8487 142.058 66.6747 142.148 66.4332L142.28 66.071L140.284 60.5455H141.42L142.802 64.7784H142.859L144.24 60.5455H145.38L143.132 66.728C143.028 67.0121 142.895 67.2524 142.734 67.4489C142.573 67.6477 142.382 67.7969 142.159 67.8963C141.937 67.9957 141.679 68.0455 141.385 68.0455ZM145.499 66L145.495 65.0803H145.691C145.842 65.0803 145.969 65.0483 146.071 64.9844C146.175 64.9181 146.26 64.8068 146.326 64.6506C146.393 64.4943 146.444 64.2789 146.479 64.0043C146.515 63.7273 146.541 63.3793 146.557 62.9602L146.653 60.5455H150.46V66H149.419V61.4616H147.637L147.551 63.3153C147.53 63.7652 147.484 64.1581 147.413 64.4943C147.344 64.8305 147.244 65.111 147.111 65.3359C146.979 65.5585 146.808 65.7254 146.6 65.8366C146.391 65.9455 146.138 66 145.84 66H145.499ZM152.575 66.0675C152.381 66.0675 152.214 65.9988 152.075 65.8615C151.935 65.7218 151.865 65.5537 151.865 65.3572C151.865 65.1631 151.935 64.9974 152.075 64.8601C152.214 64.7204 152.381 64.6506 152.575 64.6506C152.77 64.6506 152.936 64.7204 153.076 64.8601C153.216 64.9974 153.286 65.1631 153.286 65.3572C153.286 65.4875 153.253 65.607 153.186 65.7159C153.122 65.8224 153.037 65.9077 152.931 65.9716C152.824 66.0355 152.706 66.0675 152.575 66.0675ZM163.008 58.7273V66H161.914V59.6648H158.491V66H157.397V58.7273H163.008ZM164.6 68.0455V60.5455H165.637V61.4297H165.726C165.788 61.3161 165.877 61.1847 165.993 61.0355C166.109 60.8864 166.27 60.7562 166.475 60.6449C166.681 60.5312 166.954 60.4744 167.292 60.4744C167.733 60.4744 168.126 60.5857 168.471 60.8082C168.817 61.0308 169.088 61.3516 169.284 61.7706C169.483 62.1896 169.583 62.6939 169.583 63.2834C169.583 63.8729 169.484 64.3783 169.288 64.7997C169.092 65.2187 168.822 65.5419 168.478 65.7692C168.135 65.9941 167.743 66.1065 167.303 66.1065C166.971 66.1065 166.7 66.0509 166.49 65.9396C166.281 65.8284 166.118 65.6982 166 65.549C165.881 65.3999 165.79 65.2673 165.726 65.1513H165.662V68.0455H164.6ZM165.641 63.2727C165.641 63.6562 165.697 63.9924 165.808 64.2812C165.919 64.5701 166.08 64.7962 166.291 64.9595C166.502 65.1205 166.76 65.201 167.065 65.201C167.382 65.201 167.647 65.117 167.86 64.9489C168.074 64.7784 168.234 64.5476 168.343 64.2564C168.455 63.9652 168.51 63.6373 168.51 63.2727C168.51 62.9129 168.456 62.5897 168.347 62.3033C168.24 62.0168 168.079 61.7907 167.864 61.625C167.651 61.4593 167.385 61.3764 167.065 61.3764C166.757 61.3764 166.497 61.4557 166.284 61.6143C166.073 61.773 165.913 61.9943 165.804 62.2784C165.695 62.5625 165.641 62.8939 165.641 63.2727ZM171.813 64.5121L174.217 60.5455H175.36V66H174.32V62.0298L171.926 66H170.772V60.5455H171.813V64.5121ZM179.086 66.1101C178.558 66.1101 178.103 65.9905 177.722 65.7514C177.343 65.5099 177.052 65.1773 176.848 64.7536C176.645 64.3298 176.543 63.8445 176.543 63.2976C176.543 62.7436 176.647 62.2547 176.855 61.831C177.064 61.4048 177.357 61.0722 177.736 60.8331C178.115 60.594 178.561 60.4744 179.075 60.4744C179.489 60.4744 179.859 60.5514 180.183 60.7053C180.507 60.8568 180.769 61.0698 180.968 61.3445C181.169 61.6191 181.288 61.9399 181.326 62.3068H180.293C180.236 62.0511 180.106 61.831 179.902 61.6463C179.701 61.4616 179.431 61.3693 179.093 61.3693C178.797 61.3693 178.538 61.4474 178.315 61.6037C178.095 61.7576 177.923 61.9777 177.8 62.2642C177.677 62.5483 177.615 62.8845 177.615 63.2727C177.615 63.6705 177.676 64.0137 177.797 64.3026C177.917 64.5914 178.088 64.8151 178.308 64.9737C178.53 65.1323 178.792 65.2116 179.093 65.2116C179.294 65.2116 179.476 65.175 179.64 65.1016C179.805 65.0258 179.944 64.9181 180.055 64.7784C180.169 64.6387 180.248 64.4706 180.293 64.2741H181.326C181.288 64.6269 181.174 64.9418 180.982 65.2188C180.79 65.4957 180.533 65.7135 180.211 65.8722C179.892 66.0308 179.516 66.1101 179.086 66.1101ZM182.049 61.4616V60.5455H186.651V61.4616H184.872V66H183.835V61.4616H182.049ZM189.108 66.1207C188.762 66.1207 188.45 66.0568 188.17 65.929C187.891 65.7988 187.67 65.6106 187.506 65.3643C187.345 65.1181 187.265 64.8163 187.265 64.4588C187.265 64.151 187.324 63.8977 187.442 63.6989C187.561 63.5 187.72 63.3426 187.922 63.2266C188.123 63.1106 188.348 63.023 188.596 62.9638C188.845 62.9046 189.098 62.8596 189.356 62.8288C189.683 62.791 189.948 62.7602 190.152 62.7365C190.355 62.7105 190.503 62.669 190.596 62.6122C190.688 62.5554 190.734 62.4631 190.734 62.3352V62.3104C190.734 62.0002 190.647 61.7599 190.471 61.5895C190.299 61.419 190.041 61.3338 189.697 61.3338C189.34 61.3338 189.058 61.4131 188.852 61.5717C188.648 61.728 188.508 61.902 188.43 62.0938L187.432 61.8665C187.55 61.535 187.723 61.2675 187.95 61.0639C188.18 60.858 188.444 60.7088 188.742 60.6165C189.04 60.5218 189.354 60.4744 189.683 60.4744C189.901 60.4744 190.132 60.5005 190.376 60.5526C190.622 60.6023 190.851 60.6946 191.064 60.8295C191.28 60.9645 191.456 61.1574 191.594 61.4084C191.731 61.657 191.8 61.9801 191.8 62.3778V66H190.763V65.2543H190.72C190.651 65.3916 190.548 65.5265 190.411 65.6591C190.274 65.7917 190.097 65.9018 189.882 65.9893C189.666 66.0769 189.408 66.1207 189.108 66.1207ZM189.339 65.2685C189.632 65.2685 189.883 65.2105 190.091 65.0945C190.302 64.9785 190.462 64.8269 190.571 64.6399C190.682 64.4505 190.738 64.2481 190.738 64.0327V63.3295C190.7 63.3674 190.626 63.4029 190.518 63.4361C190.411 63.4669 190.289 63.4941 190.152 63.5178C190.015 63.5391 189.881 63.5592 189.751 63.5781C189.62 63.5947 189.511 63.6089 189.424 63.6207C189.218 63.6468 189.03 63.6906 188.859 63.7521C188.691 63.8137 188.556 63.9025 188.454 64.0185C188.355 64.1321 188.305 64.2836 188.305 64.473C188.305 64.7358 188.402 64.9347 188.596 65.0696C188.791 65.2022 189.038 65.2685 189.339 65.2685ZM196.911 62.8146V63.7344H193.956V62.8146H196.911ZM194.254 60.5455V66H193.214V60.5455H194.254ZM197.653 60.5455V66H196.616V60.5455H197.653ZM201.371 66.1101C200.843 66.1101 200.388 65.9905 200.007 65.7514C199.628 65.5099 199.337 65.1773 199.134 64.7536C198.93 64.3298 198.828 63.8445 198.828 63.2976C198.828 62.7436 198.932 62.2547 199.141 61.831C199.349 61.4048 199.643 61.0722 200.021 60.8331C200.4 60.594 200.846 60.4744 201.36 60.4744C201.774 60.4744 202.144 60.5514 202.468 60.7053C202.792 60.8568 203.054 61.0698 203.253 61.3445C203.454 61.6191 203.574 61.9399 203.612 62.3068H202.578C202.521 62.0511 202.391 61.831 202.188 61.6463C201.986 61.4616 201.716 61.3693 201.378 61.3693C201.082 61.3693 200.823 61.4474 200.6 61.6037C200.38 61.7576 200.208 61.9777 200.085 62.2642C199.962 62.5483 199.901 62.8845 199.901 63.2727C199.901 63.6705 199.961 64.0137 200.082 64.3026C200.202 64.5914 200.373 64.8151 200.593 64.9737C200.816 65.1323 201.077 65.2116 201.378 65.2116C201.579 65.2116 201.761 65.175 201.925 65.1016C202.09 65.0258 202.229 64.9181 202.34 64.7784C202.454 64.6387 202.533 64.4706 202.578 64.2741H203.612C203.574 64.6269 203.459 64.9418 203.267 65.2188C203.075 65.4957 202.818 65.7135 202.496 65.8722C202.177 66.0308 201.802 66.1101 201.371 66.1101ZM204.747 66V60.5455H205.809V62.8324H206.32L208.121 60.5455H209.434L207.322 63.1982L209.459 66H208.142L206.498 63.8196H205.809V66H204.747ZM211.871 66.1207C211.526 66.1207 211.213 66.0568 210.934 65.929C210.655 65.7988 210.433 65.6106 210.27 65.3643C210.109 65.1181 210.028 64.8163 210.028 64.4588C210.028 64.151 210.088 63.8977 210.206 63.6989C210.324 63.5 210.484 63.3426 210.685 63.2266C210.887 63.1106 211.112 63.023 211.36 62.9638C211.609 62.9046 211.862 62.8596 212.12 62.8288C212.447 62.791 212.712 62.7602 212.915 62.7365C213.119 62.7105 213.267 62.669 213.359 62.6122C213.452 62.5554 213.498 62.4631 213.498 62.3352V62.3104C213.498 62.0002 213.41 61.7599 213.235 61.5895C213.062 61.419 212.804 61.3338 212.461 61.3338C212.103 61.3338 211.822 61.4131 211.616 61.5717C211.412 61.728 211.271 61.902 211.193 62.0938L210.195 61.8665C210.314 61.535 210.487 61.2675 210.714 61.0639C210.943 60.858 211.207 60.7088 211.506 60.6165C211.804 60.5218 212.118 60.4744 212.447 60.4744C212.665 60.4744 212.895 60.5005 213.139 60.5526C213.385 60.6023 213.615 60.6946 213.828 60.8295C214.044 60.9645 214.22 61.1574 214.357 61.4084C214.495 61.657 214.563 61.9801 214.563 62.3778V66H213.526V65.2543H213.484C213.415 65.3916 213.312 65.5265 213.175 65.6591C213.037 65.7917 212.861 65.9018 212.646 65.9893C212.43 66.0769 212.172 66.1207 211.871 66.1207ZM212.102 65.2685C212.396 65.2685 212.647 65.2105 212.855 65.0945C213.066 64.9785 213.226 64.8269 213.335 64.6399C213.446 64.4505 213.501 64.2481 213.501 64.0327V63.3295C213.464 63.3674 213.39 63.4029 213.281 63.4361C213.175 63.4669 213.053 63.4941 212.915 63.5178C212.778 63.5391 212.644 63.5592 212.514 63.5781C212.384 63.5947 212.275 63.6089 212.188 63.6207C211.982 63.6468 211.793 63.6906 211.623 63.7521C211.455 63.8137 211.32 63.9025 211.218 64.0185C211.119 64.1321 211.069 64.2836 211.069 64.473C211.069 64.7358 211.166 64.9347 211.36 65.0696C211.554 65.2022 211.802 65.2685 212.102 65.2685ZM219.23 66V61.451H217.923C217.613 61.451 217.372 61.5232 217.199 61.6676C217.026 61.812 216.94 62.0014 216.94 62.2358C216.94 62.4678 217.019 62.6548 217.178 62.7969C217.339 62.9366 217.564 63.0064 217.852 63.0064H219.539V63.8658H217.852C217.45 63.8658 217.102 63.7995 216.808 63.6669C216.517 63.532 216.292 63.3414 216.134 63.0952C215.977 62.849 215.899 62.5578 215.899 62.2216C215.899 61.8783 215.98 61.5824 216.141 61.3338C216.304 61.0829 216.537 60.8887 216.84 60.7514C217.146 60.6141 217.507 60.5455 217.923 60.5455H220.228V66H219.23ZM215.651 66L217.188 63.2443H218.275L216.737 66H215.651ZM223.023 65.0057L222.97 65.3928C222.934 65.6768 222.874 65.9728 222.789 66.2805C222.706 66.5907 222.619 66.8783 222.529 67.1435C222.442 67.4086 222.369 67.6193 222.313 67.7756H221.56C221.591 67.6288 221.633 67.4299 221.688 67.179C221.742 66.9304 221.795 66.6522 221.847 66.3445C221.9 66.0367 221.939 65.723 221.965 65.4034L222 65.0057H223.023ZM226.519 67.5732V65.0803H226.963C227.077 64.9761 227.172 64.8518 227.251 64.7074C227.331 64.563 227.398 64.3913 227.453 64.1925C227.51 63.9936 227.557 63.7616 227.595 63.4964C227.633 63.2289 227.666 62.9235 227.694 62.5803L227.865 60.5455H231.572V65.0803H232.41V67.5732H231.373V66H227.57V67.5732H226.519ZM228.099 65.0803H230.535V61.4545H228.817L228.703 62.5803C228.648 63.1532 228.58 63.6503 228.497 64.0717C228.414 64.4908 228.282 64.8269 228.099 65.0803ZM234.148 66.0675C233.954 66.0675 233.787 65.9988 233.647 65.8615C233.507 65.7218 233.438 65.5537 233.438 65.3572C233.438 65.1631 233.507 64.9974 233.647 64.8601C233.787 64.7204 233.954 64.6506 234.148 64.6506C234.342 64.6506 234.509 64.7204 234.648 64.8601C234.788 64.9974 234.858 65.1631 234.858 65.3572C234.858 65.4875 234.825 65.607 234.759 65.7159C234.695 65.8224 234.609 65.9077 234.503 65.9716C234.396 66.0355 234.278 66.0675 234.148 66.0675ZM236.98 66.0675C236.786 66.0675 236.619 65.9988 236.479 65.8615C236.339 65.7218 236.27 65.5537 236.27 65.3572C236.27 65.1631 236.339 64.9974 236.479 64.8601C236.619 64.7204 236.786 64.6506 236.98 64.6506C237.174 64.6506 237.341 64.7204 237.48 64.8601C237.62 64.9974 237.69 65.1631 237.69 65.3572C237.69 65.4875 237.657 65.607 237.591 65.7159C237.527 65.8224 237.441 65.9077 237.335 65.9716C237.228 66.0355 237.11 66.0675 236.98 66.0675ZM239.812 66.0675C239.618 66.0675 239.451 65.9988 239.311 65.8615C239.171 65.7218 239.102 65.5537 239.102 65.3572C239.102 65.1631 239.171 64.9974 239.311 64.8601C239.451 64.7204 239.618 64.6506 239.812 64.6506C240.006 64.6506 240.173 64.7204 240.312 64.8601C240.452 64.9974 240.522 65.1631 240.522 65.3572C240.522 65.4875 240.489 65.607 240.423 65.7159C240.359 65.8224 240.273 65.9077 240.167 65.9716C240.06 66.0355 239.942 66.0675 239.812 66.0675Z" fill="#070707"/>
<path d="M257.459 58.7273V66H256.358V59.8281H256.315L254.575 60.9645V59.9134L256.39 58.7273H257.459ZM261.884 66.0994C261.375 66.0994 260.925 66.0118 260.534 65.8366C260.146 65.6615 259.842 65.42 259.621 65.1122C259.401 64.8045 259.292 64.4541 259.295 64.0611C259.292 63.7533 259.355 63.4704 259.483 63.2124C259.613 62.9519 259.79 62.7353 260.012 62.5625C260.235 62.3873 260.483 62.276 260.758 62.2287V62.1861C260.396 62.0985 260.106 61.9044 259.888 61.6037C259.67 61.303 259.562 60.9574 259.565 60.5668C259.562 60.1951 259.661 59.8636 259.859 59.5724C260.061 59.2789 260.336 59.0481 260.687 58.88C261.037 58.7119 261.436 58.6278 261.884 58.6278C262.326 58.6278 262.722 58.7131 263.07 58.8835C263.42 59.0516 263.696 59.2824 263.897 59.576C264.098 59.8672 264.2 60.1974 264.202 60.5668C264.2 60.9574 264.089 61.303 263.869 61.6037C263.648 61.9044 263.362 62.0985 263.009 62.1861V62.2287C263.281 62.276 263.527 62.3873 263.744 62.5625C263.964 62.7353 264.14 62.9519 264.27 63.2124C264.402 63.4704 264.47 63.7533 264.472 64.0611C264.47 64.4541 264.359 64.8045 264.138 65.1122C263.918 65.42 263.613 65.6615 263.222 65.8366C262.834 66.0118 262.388 66.0994 261.884 66.0994ZM261.884 65.201C262.184 65.201 262.445 65.1513 262.665 65.0518C262.885 64.95 263.055 64.8092 263.176 64.6293C263.297 64.447 263.358 64.2339 263.361 63.9901C263.358 63.7367 263.292 63.513 263.162 63.3189C263.034 63.1248 262.86 62.9721 262.64 62.8608C262.42 62.7495 262.168 62.6939 261.884 62.6939C261.597 62.6939 261.343 62.7495 261.12 62.8608C260.897 62.9721 260.722 63.1248 260.594 63.3189C260.467 63.513 260.404 63.7367 260.406 63.9901C260.404 64.2339 260.462 64.447 260.58 64.6293C260.701 64.8092 260.873 64.95 261.095 65.0518C261.318 65.1513 261.58 65.201 261.884 65.201ZM261.884 61.8168C262.125 61.8168 262.339 61.7682 262.526 61.6712C262.713 61.5741 262.86 61.4392 262.967 61.2663C263.076 61.0935 263.131 60.8911 263.134 60.6591C263.131 60.4318 263.077 60.233 262.97 60.0625C262.866 59.892 262.72 59.7607 262.533 59.6683C262.346 59.5736 262.13 59.5263 261.884 59.5263C261.633 59.5263 261.412 59.5736 261.223 59.6683C261.036 59.7607 260.89 59.892 260.786 60.0625C260.682 60.233 260.631 60.4318 260.634 60.6591C260.631 60.8911 260.683 61.0935 260.79 61.2663C260.896 61.4392 261.043 61.5741 261.23 61.6712C261.42 61.7682 261.637 61.8168 261.884 61.8168ZM266.243 66.0675C266.049 66.0675 265.882 65.9988 265.743 65.8615C265.603 65.7218 265.533 65.5537 265.533 65.3572C265.533 65.1631 265.603 64.9974 265.743 64.8601C265.882 64.7204 266.049 64.6506 266.243 64.6506C266.438 64.6506 266.604 64.7204 266.744 64.8601C266.884 64.9974 266.954 65.1631 266.954 65.3572C266.954 65.4875 266.921 65.607 266.854 65.7159C266.79 65.8224 266.705 65.9077 266.599 65.9716C266.492 66.0355 266.374 66.0675 266.243 66.0675ZM270.63 66.1207C270.069 66.1184 269.589 65.9704 269.192 65.6768C268.794 65.3833 268.49 64.956 268.279 64.3949C268.068 63.8338 267.963 63.1579 267.963 62.3672C267.963 61.5788 268.068 60.9053 268.279 60.3466C268.492 59.7879 268.798 59.3617 269.195 59.0682C269.595 58.7746 270.074 58.6278 270.63 58.6278C271.186 58.6278 271.663 58.7758 272.061 59.0717C272.459 59.3653 272.763 59.7914 272.974 60.3501C273.187 60.9065 273.293 61.5788 273.293 62.3672C273.293 63.1603 273.188 63.8374 272.977 64.3984C272.767 64.9571 272.462 65.3845 272.065 65.6804C271.667 65.974 271.189 66.1207 270.63 66.1207ZM270.63 65.1726C271.122 65.1726 271.507 64.9323 271.784 64.4517C272.063 63.9711 272.203 63.2763 272.203 62.3672C272.203 61.7635 272.139 61.2533 272.011 60.8366C271.886 60.4176 271.705 60.1004 271.468 59.8849C271.234 59.6671 270.954 59.5582 270.63 59.5582C270.14 59.5582 269.755 59.7997 269.476 60.2827C269.196 60.7656 269.056 61.4605 269.053 62.3672C269.053 62.9732 269.116 63.4858 269.241 63.9048C269.369 64.3215 269.55 64.6375 269.785 64.853C270.019 65.0661 270.301 65.1726 270.63 65.1726ZM274.553 66V65.2045L277.014 62.6548C277.277 62.3778 277.493 62.1352 277.664 61.9268C277.837 61.7161 277.966 61.5161 278.051 61.3267C278.136 61.1373 278.179 60.9361 278.179 60.723C278.179 60.4815 278.122 60.2732 278.008 60.098C277.895 59.9205 277.74 59.7843 277.543 59.6896C277.347 59.5926 277.125 59.544 276.879 59.544C276.619 59.544 276.391 59.5973 276.197 59.7038C276.003 59.8104 275.854 59.9607 275.75 60.1548C275.646 60.349 275.594 60.5762 275.594 60.8366H274.546C274.546 60.3939 274.648 60.0069 274.851 59.6754C275.055 59.344 275.334 59.0871 275.689 58.9048C276.045 58.7202 276.448 58.6278 276.9 58.6278C277.357 58.6278 277.76 58.719 278.108 58.9013C278.458 59.0812 278.732 59.3274 278.928 59.6399C279.125 59.95 279.223 60.3004 279.223 60.6911C279.223 60.9609 279.172 61.2249 279.07 61.483C278.971 61.741 278.797 62.0286 278.548 62.3459C278.3 62.6607 277.954 63.0431 277.511 63.4929L276.066 65.0057V65.0589H279.34V66H274.553ZM281.4 66.0675C281.206 66.0675 281.039 65.9988 280.899 65.8615C280.759 65.7218 280.689 65.5537 280.689 65.3572C280.689 65.1631 280.759 64.9974 280.899 64.8601C281.039 64.7204 281.206 64.6506 281.4 64.6506C281.594 64.6506 281.761 64.7204 281.9 64.8601C282.04 64.9974 282.11 65.1631 282.11 65.3572C282.11 65.4875 282.077 65.607 282.01 65.7159C281.947 65.8224 281.861 65.9077 281.755 65.9716C281.648 66.0355 281.53 66.0675 281.4 66.0675ZM283.518 66V65.2045L285.979 62.6548C286.242 62.3778 286.458 62.1352 286.629 61.9268C286.802 61.7161 286.931 61.5161 287.016 61.3267C287.101 61.1373 287.144 60.9361 287.144 60.723C287.144 60.4815 287.087 60.2732 286.973 60.098C286.86 59.9205 286.704 59.7843 286.508 59.6896C286.311 59.5926 286.09 59.544 285.844 59.544C285.584 59.544 285.356 59.5973 285.162 59.7038C284.968 59.8104 284.819 59.9607 284.715 60.1548C284.61 60.349 284.558 60.5762 284.558 60.8366H283.511C283.511 60.3939 283.613 60.0069 283.816 59.6754C284.02 59.344 284.299 59.0871 284.654 58.9048C285.009 58.7202 285.413 58.6278 285.865 58.6278C286.322 58.6278 286.725 58.719 287.073 58.9013C287.423 59.0812 287.696 59.3274 287.893 59.6399C288.089 59.95 288.188 60.3004 288.188 60.6911C288.188 60.9609 288.137 61.2249 288.035 61.483C287.936 61.741 287.762 62.0286 287.513 62.3459C287.264 62.6607 286.919 63.0431 286.476 63.4929L285.031 65.0057V65.0589H288.305V66H283.518ZM292.183 66.1207C291.622 66.1184 291.142 65.9704 290.744 65.6768C290.347 65.3833 290.043 64.956 289.832 64.3949C289.621 63.8338 289.516 63.1579 289.516 62.3672C289.516 61.5788 289.621 60.9053 289.832 60.3466C290.045 59.7879 290.35 59.3617 290.748 59.0682C291.148 58.7746 291.626 58.6278 292.183 58.6278C292.739 58.6278 293.216 58.7758 293.614 59.0717C294.012 59.3653 294.316 59.7914 294.526 60.3501C294.74 60.9065 294.846 61.5788 294.846 62.3672C294.846 63.1603 294.741 63.8374 294.53 64.3984C294.319 64.9571 294.015 65.3845 293.617 65.6804C293.22 65.974 292.741 66.1207 292.183 66.1207ZM292.183 65.1726C292.675 65.1726 293.06 64.9323 293.337 64.4517C293.616 63.9711 293.756 63.2763 293.756 62.3672C293.756 61.7635 293.692 61.2533 293.564 60.8366C293.439 60.4176 293.258 60.1004 293.021 59.8849C292.786 59.6671 292.507 59.5582 292.183 59.5582C291.693 59.5582 291.308 59.7997 291.029 60.2827C290.749 60.7656 290.608 61.4605 290.606 62.3672C290.606 62.9732 290.669 63.4858 290.794 63.9048C290.922 64.3215 291.103 64.6375 291.338 64.853C291.572 65.0661 291.854 65.1726 292.183 65.1726ZM296.106 66V65.2045L298.567 62.6548C298.83 62.3778 299.046 62.1352 299.217 61.9268C299.389 61.7161 299.518 61.5161 299.604 61.3267C299.689 61.1373 299.732 60.9361 299.732 60.723C299.732 60.4815 299.675 60.2732 299.561 60.098C299.447 59.9205 299.292 59.7843 299.096 59.6896C298.899 59.5926 298.678 59.544 298.432 59.544C298.171 59.544 297.944 59.5973 297.75 59.7038C297.556 59.8104 297.407 59.9607 297.303 60.1548C297.198 60.349 297.146 60.5762 297.146 60.8366H296.099C296.099 60.3939 296.201 60.0069 296.404 59.6754C296.608 59.344 296.887 59.0871 297.242 58.9048C297.597 58.7202 298.001 58.6278 298.453 58.6278C298.91 58.6278 299.313 58.719 299.661 58.9013C300.011 59.0812 300.284 59.3274 300.481 59.6399C300.677 59.95 300.776 60.3004 300.776 60.6911C300.776 60.9609 300.725 61.2249 300.623 61.483C300.523 61.741 300.349 62.0286 300.101 62.3459C299.852 62.6607 299.507 63.0431 299.064 63.4929L297.619 65.0057V65.0589H300.893V66H296.106ZM304.778 66.0994C304.453 66.0947 304.134 66.0355 303.819 65.9219C303.506 65.8082 303.222 65.6188 302.967 65.3537C302.711 65.0885 302.506 64.7322 302.352 64.2848C302.201 63.8374 302.125 63.2786 302.125 62.6087C302.125 61.9742 302.188 61.4107 302.313 60.9183C302.441 60.4259 302.625 60.0104 302.864 59.6719C303.103 59.331 303.392 59.0717 303.73 58.8942C304.069 58.7166 304.449 58.6278 304.87 58.6278C305.303 58.6278 305.688 58.7131 306.024 58.8835C306.36 59.054 306.633 59.2895 306.841 59.5902C307.052 59.8909 307.185 60.233 307.242 60.6165H306.159C306.086 60.3134 305.94 60.0661 305.722 59.8743C305.504 59.6825 305.22 59.5866 304.87 59.5866C304.337 59.5866 303.922 59.8187 303.624 60.2827C303.328 60.7467 303.179 61.3918 303.176 62.218H303.229C303.355 62.0121 303.509 61.8369 303.691 61.6925C303.876 61.5457 304.082 61.4332 304.309 61.3551C304.539 61.2746 304.78 61.2344 305.033 61.2344C305.455 61.2344 305.836 61.3374 306.177 61.5433C306.52 61.7469 306.794 62.0286 306.997 62.3885C307.201 62.7483 307.303 63.1603 307.303 63.6243C307.303 64.0883 307.197 64.5085 306.987 64.8849C306.778 65.2614 306.485 65.5597 306.106 65.7798C305.727 65.9976 305.284 66.1042 304.778 66.0994ZM304.774 65.1761C305.054 65.1761 305.303 65.1075 305.523 64.9702C305.744 64.8329 305.918 64.6482 306.045 64.4162C306.173 64.1842 306.237 63.925 306.237 63.6385C306.237 63.3591 306.174 63.1046 306.049 62.875C305.926 62.6454 305.755 62.4631 305.538 62.3281C305.322 62.1932 305.076 62.1257 304.799 62.1257C304.588 62.1257 304.393 62.166 304.213 62.2464C304.036 62.3269 303.879 62.4382 303.744 62.5803C303.609 62.7223 303.503 62.8857 303.425 63.0703C303.349 63.2526 303.311 63.4455 303.311 63.6491C303.311 63.9214 303.374 64.1735 303.499 64.4055C303.627 64.6375 303.801 64.8246 304.021 64.9666C304.244 65.1063 304.495 65.1761 304.774 65.1761Z" fill="#070707"/>
<path d="M15.9716 34.2727V43H14.9148V35.3807H14.8636L12.733 36.7955V35.7216L14.9148 34.2727H15.9716Z" fill="#BFBFBF"/>
<path d="M11.9034 67V66.233L14.7841 63.0795C15.1222 62.7102 15.4006 62.3892 15.6193 62.1165C15.8381 61.8409 16 61.5824 16.1051 61.3409C16.2131 61.0966 16.267 60.8409 16.267 60.5739C16.267 60.267 16.1932 60.0014 16.0455 59.777C15.9006 59.5526 15.7017 59.3793 15.4489 59.2571C15.196 59.1349 14.9119 59.0739 14.5966 59.0739C14.2614 59.0739 13.9688 59.1435 13.7188 59.2827C13.4716 59.419 13.2798 59.6108 13.1435 59.858C13.0099 60.1051 12.9432 60.3949 12.9432 60.7273H11.9375C11.9375 60.2159 12.0554 59.767 12.2912 59.3807C12.527 58.9943 12.848 58.6932 13.2543 58.4773C13.6634 58.2614 14.1222 58.1534 14.6307 58.1534C15.142 58.1534 15.5952 58.2614 15.9901 58.4773C16.3849 58.6932 16.6946 58.9844 16.919 59.3509C17.1435 59.7173 17.2557 60.125 17.2557 60.5739C17.2557 60.8949 17.1974 61.2088 17.081 61.5156C16.9673 61.8196 16.7685 62.1591 16.4844 62.5341C16.2031 62.9062 15.8125 63.3608 15.3125 63.8977L13.3523 65.9943V66.0625H17.4091V67H11.9034Z" fill="#BFBFBF"/>
<path d="M28.5 75.5V100.5H135.5V75.5H28.5Z" fill="white" stroke="#BFBFBF"/>
<path d="M135.5 75.5V100.5H248.5V75.5H135.5Z" fill="white" stroke="#BFBFBF"/>
<path d="M248.5 75.5V100.5H361.5V75.5H248.5Z" fill="white" stroke="#BFBFBF"/>
<path d="M0.5 75.5V100.5H28.5V75.5H0.5Z" fill="white" stroke="#BFBFBF"/>
<path d="M41.1165 87.3636C41.1165 88.1402 40.9744 88.8078 40.6903 89.3665C40.4063 89.9228 40.0168 90.3513 39.522 90.652C39.0296 90.9503 38.4697 91.0994 37.8423 91.0994C37.2126 91.0994 36.6503 90.9503 36.1555 90.652C35.6631 90.3513 35.2749 89.9216 34.9908 89.3629C34.7067 88.8042 34.5646 88.1378 34.5646 87.3636C34.5646 86.5871 34.7067 85.9207 34.9908 85.3643C35.2749 84.8056 35.6631 84.3771 36.1555 84.0788C36.6503 83.7782 37.2126 83.6278 37.8423 83.6278C38.4697 83.6278 39.0296 83.7782 39.522 84.0788C40.0168 84.3771 40.4063 84.8056 40.6903 85.3643C40.9744 85.9207 41.1165 86.5871 41.1165 87.3636ZM40.0298 87.3636C40.0298 86.7718 39.9339 86.2734 39.7422 85.8686C39.5528 85.4614 39.2924 85.1536 38.9609 84.9453C38.6319 84.7346 38.259 84.6293 37.8423 84.6293C37.4233 84.6293 37.0492 84.7346 36.7202 84.9453C36.3911 85.1536 36.1307 85.4614 35.9389 85.8686C35.7495 86.2734 35.6548 86.7718 35.6548 87.3636C35.6548 87.9555 35.7495 88.455 35.9389 88.8622C36.1307 89.267 36.3911 89.5748 36.7202 89.7855C37.0492 89.9938 37.4233 90.098 37.8423 90.098C38.259 90.098 38.6319 89.9938 38.9609 89.7855C39.2924 89.5748 39.5528 89.267 39.7422 88.8622C39.9339 88.455 40.0298 87.9555 40.0298 87.3636ZM48.802 87.3636C48.802 88.1402 48.66 88.8078 48.3759 89.3665C48.0918 89.9228 47.7024 90.3513 47.2076 90.652C46.7151 90.9503 46.1552 91.0994 45.5279 91.0994C44.8981 91.0994 44.3359 90.9503 43.8411 90.652C43.3487 90.3513 42.9604 89.9216 42.6763 89.3629C42.3922 88.8042 42.2502 88.1378 42.2502 87.3636C42.2502 86.5871 42.3922 85.9207 42.6763 85.3643C42.9604 84.8056 43.3487 84.3771 43.8411 84.0788C44.3359 83.7782 44.8981 83.6278 45.5279 83.6278C46.1552 83.6278 46.7151 83.7782 47.2076 84.0788C47.7024 84.3771 48.0918 84.8056 48.3759 85.3643C48.66 85.9207 48.802 86.5871 48.802 87.3636ZM47.7154 87.3636C47.7154 86.7718 47.6195 86.2734 47.4277 85.8686C47.2383 85.4614 46.9779 85.1536 46.6465 84.9453C46.3174 84.7346 45.9445 84.6293 45.5279 84.6293C45.1088 84.6293 44.7348 84.7346 44.4057 84.9453C44.0766 85.1536 43.8162 85.4614 43.6245 85.8686C43.4351 86.2734 43.3404 86.7718 43.3404 87.3636C43.3404 87.9555 43.4351 88.455 43.6245 88.8622C43.8162 89.267 44.0766 89.5748 44.4057 89.7855C44.7348 89.9938 45.1088 90.098 45.5279 90.098C45.9445 90.098 46.3174 89.9938 46.6465 89.7855C46.9779 89.5748 47.2383 89.267 47.4277 88.8622C47.6195 88.455 47.7154 87.9555 47.7154 87.3636ZM56.4876 87.3636C56.4876 88.1402 56.3455 88.8078 56.0614 89.3665C55.7773 89.9228 55.3879 90.3513 54.8931 90.652C54.4007 90.9503 53.8408 91.0994 53.2134 91.0994C52.5837 91.0994 52.0214 90.9503 51.5266 90.652C51.0342 90.3513 50.646 89.9216 50.3619 89.3629C50.0778 88.8042 49.9357 88.1378 49.9357 87.3636C49.9357 86.5871 50.0778 85.9207 50.3619 85.3643C50.646 84.8056 51.0342 84.3771 51.5266 84.0788C52.0214 83.7782 52.5837 83.6278 53.2134 83.6278C53.8408 83.6278 54.4007 83.7782 54.8931 84.0788C55.3879 84.3771 55.7773 84.8056 56.0614 85.3643C56.3455 85.9207 56.4876 86.5871 56.4876 87.3636ZM55.4009 87.3636C55.4009 86.7718 55.305 86.2734 55.1133 85.8686C54.9239 85.4614 54.6635 85.1536 54.332 84.9453C54.003 84.7346 53.6301 84.6293 53.2134 84.6293C52.7944 84.6293 52.4203 84.7346 52.0913 84.9453C51.7622 85.1536 51.5018 85.4614 51.31 85.8686C51.1206 86.2734 51.0259 86.7718 51.0259 87.3636C51.0259 87.9555 51.1206 88.455 51.31 88.8622C51.5018 89.267 51.7622 89.5748 52.0913 89.7855C52.4203 89.9938 52.7944 90.098 53.2134 90.098C53.6301 90.098 54.003 89.9938 54.332 89.7855C54.6635 89.5748 54.9239 89.267 55.1133 88.8622C55.305 88.455 55.4009 87.9555 55.4009 87.3636ZM61.223 83.7273V86.3161H60.3423V83.7273H61.223ZM63.0483 83.7273V86.3161H62.1676V83.7273H63.0483ZM64.1376 84.6719V83.7273H69.7662V84.6719H67.497V91H66.4032V84.6719H64.1376ZM72.4846 91.1101C71.9471 91.1101 71.4843 90.9953 71.0961 90.7656C70.7102 90.5336 70.4119 90.2081 70.2012 89.7891C69.9928 89.3677 69.8887 88.8741 69.8887 88.3082C69.8887 87.7495 69.9928 87.2571 70.2012 86.831C70.4119 86.4048 70.7054 86.0722 71.0819 85.8331C71.4606 85.594 71.9033 85.4744 72.41 85.4744C72.7177 85.4744 73.016 85.5253 73.3049 85.6271C73.5937 85.7289 73.8529 85.8887 74.0826 86.1065C74.3122 86.3243 74.4933 86.6072 74.6259 86.9553C74.7585 87.3009 74.8248 87.7211 74.8248 88.2159V88.5923H70.4888V87.7969H73.7843C73.7843 87.5175 73.7275 87.2701 73.6138 87.0547C73.5002 86.8369 73.3404 86.6652 73.1344 86.5398C72.9308 86.4143 72.6917 86.3516 72.4171 86.3516C72.1188 86.3516 71.8584 86.425 71.6358 86.5717C71.4157 86.7161 71.2452 86.9055 71.1245 87.1399C71.0061 87.3719 70.9469 87.6241 70.9469 87.8963V88.5178C70.9469 88.8823 71.0108 89.1925 71.1387 89.4482C71.2689 89.7038 71.45 89.8991 71.682 90.0341C71.914 90.1667 72.1851 90.233 72.4952 90.233C72.6964 90.233 72.8799 90.2045 73.0456 90.1477C73.2114 90.0885 73.3546 90.0009 73.4753 89.8849C73.5961 89.7689 73.6884 89.6257 73.7523 89.4553L74.7573 89.6364C74.6768 89.9323 74.5324 90.1915 74.324 90.4141C74.1181 90.6342 73.8588 90.8059 73.5463 90.929C73.2362 91.0497 72.8823 91.1101 72.4846 91.1101ZM75.5732 91L75.5696 90.0803H75.7649C75.9164 90.0803 76.0431 90.0483 76.1449 89.9844C76.2491 89.9181 76.3343 89.8068 76.4006 89.6506C76.4669 89.4943 76.5178 89.2789 76.5533 89.0043C76.5888 88.7273 76.6148 88.3793 76.6314 87.9602L76.7273 85.5455H80.5341V91H79.4936V86.4616H77.7109L77.6257 88.3153C77.6044 88.7652 77.5582 89.1581 77.4872 89.4943C77.4186 89.8305 77.3179 90.111 77.1854 90.3359C77.0528 90.5585 76.8823 90.7254 76.674 90.8366C76.4657 90.9455 76.2124 91 75.9141 91H75.5732ZM84.301 91.1101C83.7636 91.1101 83.3007 90.9953 82.9125 90.7656C82.5266 90.5336 82.2283 90.2081 82.0176 89.7891C81.8092 89.3677 81.7051 88.8741 81.7051 88.3082C81.7051 87.7495 81.8092 87.2571 82.0176 86.831C82.2283 86.4048 82.5218 86.0722 82.8983 85.8331C83.277 85.594 83.7198 85.4744 84.2264 85.4744C84.5342 85.4744 84.8324 85.5253 85.1213 85.6271C85.4101 85.7289 85.6693 85.8887 85.899 86.1065C86.1286 86.3243 86.3097 86.6072 86.4423 86.9553C86.5749 87.3009 86.6412 87.7211 86.6412 88.2159V88.5923H82.3052V87.7969H85.6007C85.6007 87.5175 85.5439 87.2701 85.4302 87.0547C85.3166 86.8369 85.1568 86.6652 84.9508 86.5398C84.7472 86.4143 84.5081 86.3516 84.2335 86.3516C83.9352 86.3516 83.6748 86.425 83.4522 86.5717C83.2321 86.7161 83.0616 86.9055 82.9409 87.1399C82.8225 87.3719 82.7633 87.6241 82.7633 87.8963V88.5178C82.7633 88.8823 82.8272 89.1925 82.9551 89.4482C83.0853 89.7038 83.2664 89.8991 83.4984 90.0341C83.7304 90.1667 84.0015 90.233 84.3116 90.233C84.5128 90.233 84.6963 90.2045 84.862 90.1477C85.0278 90.0885 85.171 90.0009 85.2917 89.8849C85.4125 89.7689 85.5048 89.6257 85.5687 89.4553L86.5737 89.6364C86.4932 89.9323 86.3488 90.1915 86.1404 90.4141C85.9345 90.6342 85.6752 90.8059 85.3627 90.929C85.0526 91.0497 84.6987 91.1101 84.301 91.1101ZM87.8192 91V85.5455H88.881V87.8324H89.3924L91.1928 85.5455H92.5067L90.3938 88.1982L92.5316 91H91.2141L89.57 88.8196H88.881V91H87.8192ZM95.4293 91.1101C94.918 91.1101 94.4717 90.9929 94.0906 90.7585C93.7094 90.5241 93.4135 90.1963 93.2028 89.7749C92.9921 89.3535 92.8867 88.861 92.8867 88.2976C92.8867 87.7318 92.9921 87.237 93.2028 86.8132C93.4135 86.3894 93.7094 86.0604 94.0906 85.826C94.4717 85.5916 94.918 85.4744 95.4293 85.4744C95.9407 85.4744 96.387 85.5916 96.7681 85.826C97.1493 86.0604 97.4452 86.3894 97.6559 86.8132C97.8666 87.237 97.9719 87.7318 97.9719 88.2976C97.9719 88.861 97.8666 89.3535 97.6559 89.7749C97.4452 90.1963 97.1493 90.5241 96.7681 90.7585C96.387 90.9929 95.9407 91.1101 95.4293 91.1101ZM95.4329 90.2188C95.7643 90.2188 96.0389 90.1312 96.2567 89.956C96.4746 89.7808 96.6355 89.5476 96.7397 89.2564C96.8462 88.9652 96.8995 88.6444 96.8995 88.294C96.8995 87.946 96.8462 87.6264 96.7397 87.3352C96.6355 87.0417 96.4746 86.8061 96.2567 86.6286C96.0389 86.451 95.7643 86.3622 95.4329 86.3622C95.0991 86.3622 94.8221 86.451 94.6019 86.6286C94.3841 86.8061 94.2219 87.0417 94.1154 87.3352C94.0112 87.6264 93.9592 87.946 93.9592 88.294C93.9592 88.6444 94.0112 88.9652 94.1154 89.2564C94.2219 89.5476 94.3841 89.7808 94.6019 89.956C94.8221 90.1312 95.0991 90.2188 95.4329 90.2188ZM102.218 89.6861L103.98 85.5455H104.896L102.612 91H101.824L99.5868 85.5455H100.492L102.218 89.6861ZM100.198 85.5455V91H99.1571V85.5455H100.198ZM104.267 91V85.5455H105.301V91H104.267ZM107.522 83.7273V86.3161H106.641V83.7273H107.522ZM109.347 83.7273V86.3161H108.466V83.7273H109.347Z" fill="#070707"/>
<path d="M141.385 93.0455C141.226 93.0455 141.082 93.0324 140.952 93.0064C140.821 92.9827 140.724 92.9567 140.661 92.9283L140.916 92.0582C141.11 92.1103 141.283 92.1328 141.435 92.1257C141.586 92.1186 141.72 92.0618 141.836 91.9553C141.954 91.8487 142.058 91.6747 142.148 91.4332L142.28 91.071L140.284 85.5455H141.42L142.802 89.7784H142.859L144.24 85.5455H145.38L143.132 91.728C143.028 92.0121 142.895 92.2524 142.734 92.4489C142.573 92.6477 142.382 92.7969 142.159 92.8963C141.937 92.9957 141.679 93.0455 141.385 93.0455ZM145.499 91L145.495 90.0803H145.691C145.842 90.0803 145.969 90.0483 146.071 89.9844C146.175 89.9181 146.26 89.8068 146.326 89.6506C146.393 89.4943 146.444 89.2789 146.479 89.0043C146.515 88.7273 146.541 88.3793 146.557 87.9602L146.653 85.5455H150.46V91H149.419V86.4616H147.637L147.551 88.3153C147.53 88.7652 147.484 89.1581 147.413 89.4943C147.344 89.8305 147.244 90.111 147.111 90.3359C146.979 90.5585 146.808 90.7254 146.6 90.8366C146.391 90.9455 146.138 91 145.84 91H145.499ZM152.575 91.0675C152.381 91.0675 152.214 90.9988 152.075 90.8615C151.935 90.7218 151.865 90.5537 151.865 90.3572C151.865 90.1631 151.935 89.9974 152.075 89.8601C152.214 89.7204 152.381 89.6506 152.575 89.6506C152.77 89.6506 152.936 89.7204 153.076 89.8601C153.216 89.9974 153.286 90.1631 153.286 90.3572C153.286 90.4875 153.253 90.607 153.186 90.7159C153.122 90.8224 153.037 90.9077 152.931 90.9716C152.824 91.0355 152.706 91.0675 152.575 91.0675ZM157.322 91V83.7273H158.42V86.8878H162.045V83.7273H163.146V91H162.045V87.8288H158.42V91H157.322ZM166.246 91.1207C165.901 91.1207 165.588 91.0568 165.309 90.929C165.03 90.7988 164.808 90.6106 164.645 90.3643C164.484 90.1181 164.403 89.8163 164.403 89.4588C164.403 89.151 164.463 88.8977 164.581 88.6989C164.699 88.5 164.859 88.3426 165.06 88.2266C165.262 88.1106 165.487 88.023 165.735 87.9638C165.984 87.9046 166.237 87.8596 166.495 87.8288C166.822 87.791 167.087 87.7602 167.29 87.7365C167.494 87.7105 167.642 87.669 167.734 87.6122C167.827 87.5554 167.873 87.4631 167.873 87.3352V87.3104C167.873 87.0002 167.785 86.7599 167.61 86.5895C167.437 86.419 167.179 86.3338 166.836 86.3338C166.478 86.3338 166.197 86.4131 165.991 86.5717C165.787 86.728 165.646 86.902 165.568 87.0938L164.57 86.8665C164.689 86.535 164.862 86.2675 165.089 86.0639C165.318 85.858 165.582 85.7088 165.881 85.6165C166.179 85.5218 166.493 85.4744 166.822 85.4744C167.04 85.4744 167.27 85.5005 167.514 85.5526C167.76 85.6023 167.99 85.6946 168.203 85.8295C168.419 85.9645 168.595 86.1574 168.732 86.4084C168.87 86.657 168.938 86.9801 168.938 87.3778V91H167.901V90.2543H167.859C167.79 90.3916 167.687 90.5265 167.55 90.6591C167.412 90.7917 167.236 90.9018 167.021 90.9893C166.805 91.0769 166.547 91.1207 166.246 91.1207ZM166.477 90.2685C166.771 90.2685 167.022 90.2105 167.23 90.0945C167.441 89.9785 167.601 89.8269 167.71 89.6399C167.821 89.4505 167.876 89.2481 167.876 89.0327V88.3295C167.839 88.3674 167.765 88.4029 167.656 88.4361C167.55 88.4669 167.428 88.4941 167.29 88.5178C167.153 88.5391 167.019 88.5592 166.889 88.5781C166.759 88.5947 166.65 88.6089 166.562 88.6207C166.357 88.6468 166.168 88.6906 165.998 88.7521C165.83 88.8137 165.695 88.9025 165.593 89.0185C165.494 89.1321 165.444 89.2836 165.444 89.473C165.444 89.7358 165.541 89.9347 165.735 90.0696C165.929 90.2022 166.177 90.2685 166.477 90.2685ZM174.561 83.5142L175.001 84.1854C174.838 84.3345 174.652 84.4411 174.443 84.505C174.237 84.5665 173.999 84.6056 173.73 84.6222C173.46 84.6364 173.151 84.6494 172.803 84.6612C172.41 84.6731 172.087 84.7583 171.833 84.9169C171.58 85.0732 171.385 85.3052 171.247 85.6129C171.112 85.9183 171.025 86.3018 170.985 86.7635H171.052C171.23 86.425 171.476 86.1716 171.791 86.0036C172.108 85.8355 172.464 85.7514 172.86 85.7514C173.3 85.7514 173.692 85.852 174.035 86.0533C174.378 86.2545 174.648 86.5492 174.845 86.9375C175.044 87.3234 175.143 87.7957 175.143 88.3544C175.143 88.9202 175.039 89.4091 174.83 89.821C174.624 90.233 174.333 90.5514 173.957 90.7763C173.583 90.9988 173.141 91.1101 172.632 91.1101C172.123 91.1101 171.679 90.9953 171.301 90.7656C170.924 90.5336 170.632 90.1903 170.423 89.7358C170.218 89.2812 170.115 88.7202 170.115 88.0526V87.5128C170.115 86.2652 170.337 85.3265 170.782 84.6967C171.227 84.067 171.892 83.7438 172.778 83.7273C173.064 83.7202 173.32 83.719 173.545 83.7237C173.77 83.7261 173.966 83.7154 174.134 83.6918C174.305 83.6657 174.447 83.6065 174.561 83.5142ZM172.636 90.2188C172.932 90.2188 173.186 90.1442 173.399 89.995C173.615 89.8435 173.78 89.6293 173.896 89.3523C174.012 89.0753 174.07 88.7486 174.07 88.3722C174.07 88.0028 174.012 87.6892 173.896 87.4311C173.78 87.1731 173.615 86.9766 173.399 86.8416C173.184 86.7043 172.926 86.6357 172.625 86.6357C172.403 86.6357 172.204 86.6747 172.029 86.7528C171.853 86.8286 171.703 86.9411 171.578 87.0902C171.454 87.2393 171.359 87.4216 171.29 87.6371C171.224 87.8501 171.188 88.0952 171.183 88.3722C171.183 88.9356 171.312 89.3842 171.57 89.718C171.831 90.0518 172.186 90.2188 172.636 90.2188ZM178.68 91.1101C178.142 91.1101 177.68 90.9953 177.291 90.7656C176.905 90.5336 176.607 90.2081 176.396 89.7891C176.188 89.3677 176.084 88.8741 176.084 88.3082C176.084 87.7495 176.188 87.2571 176.396 86.831C176.607 86.4048 176.901 86.0722 177.277 85.8331C177.656 85.594 178.099 85.4744 178.605 85.4744C178.913 85.4744 179.211 85.5253 179.5 85.6271C179.789 85.7289 180.048 85.8887 180.278 86.1065C180.508 86.3243 180.689 86.6072 180.821 86.9553C180.954 87.3009 181.02 87.7211 181.02 88.2159V88.5923H176.684V87.7969H179.98C179.98 87.5175 179.923 87.2701 179.809 87.0547C179.695 86.8369 179.536 86.6652 179.33 86.5398C179.126 86.4143 178.887 86.3516 178.612 86.3516C178.314 86.3516 178.054 86.425 177.831 86.5717C177.611 86.7161 177.441 86.9055 177.32 87.1399C177.201 87.3719 177.142 87.6241 177.142 87.8963V88.5178C177.142 88.8823 177.206 89.1925 177.334 89.4482C177.464 89.7038 177.645 89.8991 177.877 90.0341C178.109 90.1667 178.38 90.233 178.691 90.233C178.892 90.233 179.075 90.2045 179.241 90.1477C179.407 90.0885 179.55 90.0009 179.671 89.8849C179.791 89.7689 179.884 89.6257 179.948 89.4553L180.953 89.6364C180.872 89.9323 180.728 90.1915 180.519 90.4141C180.313 90.6342 180.054 90.8059 179.742 90.929C179.432 91.0497 179.078 91.1101 178.68 91.1101ZM182.198 93.0455V85.5455H183.235V86.4297H183.324C183.385 86.3161 183.474 86.1847 183.59 86.0355C183.706 85.8864 183.867 85.7562 184.073 85.6449C184.279 85.5312 184.551 85.4744 184.89 85.4744C185.33 85.4744 185.723 85.5857 186.069 85.8082C186.415 86.0308 186.686 86.3516 186.882 86.7706C187.081 87.1896 187.18 87.6939 187.18 88.2834C187.18 88.8729 187.082 89.3783 186.886 89.7997C186.689 90.2187 186.419 90.5419 186.076 90.7692C185.733 90.9941 185.341 91.1065 184.901 91.1065C184.569 91.1065 184.298 91.0509 184.087 90.9396C183.879 90.8284 183.716 90.6982 183.597 90.549C183.479 90.3999 183.388 90.2673 183.324 90.1513H183.26V93.0455H182.198ZM183.239 88.2727C183.239 88.6562 183.294 88.9924 183.406 89.2812C183.517 89.5701 183.678 89.7962 183.888 89.9595C184.099 90.1205 184.357 90.201 184.663 90.201C184.98 90.201 185.245 90.117 185.458 89.9489C185.671 89.7784 185.832 89.5476 185.941 89.2564C186.052 88.9652 186.108 88.6373 186.108 88.2727C186.108 87.9129 186.054 87.5897 185.945 87.3033C185.838 87.0168 185.677 86.7907 185.462 86.625C185.249 86.4593 184.982 86.3764 184.663 86.3764C184.355 86.3764 184.094 86.4557 183.881 86.6143C183.671 86.773 183.511 86.9943 183.402 87.2784C183.293 87.5625 183.239 87.8939 183.239 88.2727ZM190.721 91.1101C190.183 91.1101 189.721 90.9953 189.332 90.7656C188.946 90.5336 188.648 90.2081 188.438 89.7891C188.229 89.3677 188.125 88.8741 188.125 88.3082C188.125 87.7495 188.229 87.2571 188.438 86.831C188.648 86.4048 188.942 86.0722 189.318 85.8331C189.697 85.594 190.14 85.4744 190.646 85.4744C190.954 85.4744 191.252 85.5253 191.541 85.6271C191.83 85.7289 192.089 85.8887 192.319 86.1065C192.549 86.3243 192.73 86.6072 192.862 86.9553C192.995 87.3009 193.061 87.7211 193.061 88.2159V88.5923H188.725V87.7969H192.021C192.021 87.5175 191.964 87.2701 191.85 87.0547C191.737 86.8369 191.577 86.6652 191.371 86.5398C191.167 86.4143 190.928 86.3516 190.653 86.3516C190.355 86.3516 190.095 86.425 189.872 86.5717C189.652 86.7161 189.482 86.9055 189.361 87.1399C189.242 87.3719 189.183 87.6241 189.183 87.8963V88.5178C189.183 88.8823 189.247 89.1925 189.375 89.4482C189.505 89.7038 189.686 89.8991 189.918 90.0341C190.15 90.1667 190.421 90.233 190.732 90.233C190.933 90.233 191.116 90.2045 191.282 90.1477C191.448 90.0885 191.591 90.0009 191.712 89.8849C191.832 89.7689 191.925 89.6257 191.989 89.4553L192.994 89.6364C192.913 89.9323 192.769 90.1915 192.56 90.4141C192.354 90.6342 192.095 90.8059 191.783 90.929C191.473 91.0497 191.119 91.1101 190.721 91.1101ZM193.764 91L195.877 88.2088L193.789 85.5455H195.025L196.712 87.8111H197.092V85.5455H198.153V87.8111H198.523L200.21 85.5455H201.445L199.368 88.2088L201.47 91H200.21L198.509 88.7273H198.153V91H197.092V88.7273H196.737L195.025 91H193.764ZM206.246 87.8146V88.7344H203.292V87.8146H206.246ZM203.59 85.5455V91H202.55V85.5455H203.59ZM206.989 85.5455V91H205.952V85.5455H206.989ZM209.996 91.1207C209.651 91.1207 209.338 91.0568 209.059 90.929C208.78 90.7988 208.558 90.6106 208.395 90.3643C208.234 90.1181 208.153 89.8163 208.153 89.4588C208.153 89.151 208.213 88.8977 208.331 88.6989C208.449 88.5 208.609 88.3426 208.81 88.2266C209.012 88.1106 209.237 88.023 209.485 87.9638C209.734 87.9046 209.987 87.8596 210.245 87.8288C210.572 87.791 210.837 87.7602 211.04 87.7365C211.244 87.7105 211.392 87.669 211.484 87.6122C211.577 87.5554 211.623 87.4631 211.623 87.3352V87.3104C211.623 87.0002 211.535 86.7599 211.36 86.5895C211.187 86.419 210.929 86.3338 210.586 86.3338C210.228 86.3338 209.947 86.4131 209.741 86.5717C209.537 86.728 209.396 86.902 209.318 87.0938L208.32 86.8665C208.439 86.535 208.612 86.2675 208.839 86.0639C209.068 85.858 209.332 85.7088 209.631 85.6165C209.929 85.5218 210.243 85.4744 210.572 85.4744C210.79 85.4744 211.02 85.5005 211.264 85.5526C211.51 85.6023 211.74 85.6946 211.953 85.8295C212.169 85.9645 212.345 86.1574 212.482 86.4084C212.62 86.657 212.688 86.9801 212.688 87.3778V91H211.651V90.2543H211.609C211.54 90.3916 211.437 90.5265 211.3 90.6591C211.162 90.7917 210.986 90.9018 210.771 90.9893C210.555 91.0769 210.297 91.1207 209.996 91.1207ZM210.227 90.2685C210.521 90.2685 210.772 90.2105 210.98 90.0945C211.191 89.9785 211.351 89.8269 211.46 89.6399C211.571 89.4505 211.626 89.2481 211.626 89.0327V88.3295C211.589 88.3674 211.515 88.4029 211.406 88.4361C211.3 88.4669 211.178 88.4941 211.04 88.5178C210.903 88.5391 210.769 88.5592 210.639 88.5781C210.509 88.5947 210.4 88.6089 210.312 88.6207C210.107 88.6468 209.918 88.6906 209.748 88.7521C209.58 88.8137 209.445 88.9025 209.343 89.0185C209.244 89.1321 209.194 89.2836 209.194 89.473C209.194 89.7358 209.291 89.9347 209.485 90.0696C209.679 90.2022 209.927 90.2685 210.227 90.2685ZM217.355 91V86.451H216.048C215.738 86.451 215.497 86.5232 215.324 86.6676C215.151 86.812 215.065 87.0014 215.065 87.2358C215.065 87.4678 215.144 87.6548 215.303 87.7969C215.464 87.9366 215.689 88.0064 215.977 88.0064H217.664V88.8658H215.977C215.575 88.8658 215.227 88.7995 214.933 88.6669C214.642 88.532 214.417 88.3414 214.259 88.0952C214.102 87.849 214.024 87.5578 214.024 87.2216C214.024 86.8783 214.105 86.5824 214.266 86.3338C214.429 86.0829 214.662 85.8887 214.965 85.7514C215.271 85.6141 215.632 85.5455 216.048 85.5455H218.353V91H217.355ZM213.776 91L215.313 88.2443H216.4L214.862 91H213.776ZM221.148 90.0057L221.095 90.3928C221.059 90.6768 220.999 90.9728 220.914 91.2805C220.831 91.5907 220.744 91.8783 220.654 92.1435C220.567 92.4086 220.494 92.6193 220.438 92.7756H219.685C219.716 92.6288 219.758 92.4299 219.813 92.179C219.867 91.9304 219.92 91.6522 219.972 91.3445C220.025 91.0367 220.064 90.723 220.09 90.4034L220.125 90.0057H221.148ZM224.644 92.5732V90.0803H225.088C225.202 89.9761 225.297 89.8518 225.376 89.7074C225.456 89.563 225.523 89.3913 225.578 89.1925C225.635 88.9936 225.682 88.7616 225.72 88.4964C225.758 88.2289 225.791 87.9235 225.819 87.5803L225.99 85.5455H229.697V90.0803H230.535V92.5732H229.498V91H225.695V92.5732H224.644ZM226.224 90.0803H228.66V86.4545H226.942L226.828 87.5803C226.773 88.1532 226.705 88.6503 226.622 89.0717C226.539 89.4908 226.407 89.8269 226.224 90.0803ZM232.273 91.0675C232.079 91.0675 231.912 90.9988 231.772 90.8615C231.632 90.7218 231.562 90.5537 231.562 90.3572C231.562 90.1631 231.632 89.9974 231.772 89.8601C231.912 89.7204 232.079 89.6506 232.273 89.6506C232.467 89.6506 232.634 89.7204 232.773 89.8601C232.913 89.9974 232.983 90.1631 232.983 90.3572C232.983 90.4875 232.95 90.607 232.884 90.7159C232.82 90.8224 232.734 90.9077 232.628 90.9716C232.521 91.0355 232.403 91.0675 232.273 91.0675ZM235.105 91.0675C234.911 91.0675 234.744 90.9988 234.604 90.8615C234.464 90.7218 234.395 90.5537 234.395 90.3572C234.395 90.1631 234.464 89.9974 234.604 89.8601C234.744 89.7204 234.911 89.6506 235.105 89.6506C235.299 89.6506 235.466 89.7204 235.605 89.8601C235.745 89.9974 235.815 90.1631 235.815 90.3572C235.815 90.4875 235.782 90.607 235.716 90.7159C235.652 90.8224 235.566 90.9077 235.46 90.9716C235.353 91.0355 235.235 91.0675 235.105 91.0675ZM237.937 91.0675C237.743 91.0675 237.576 90.9988 237.436 90.8615C237.296 90.7218 237.227 90.5537 237.227 90.3572C237.227 90.1631 237.296 89.9974 237.436 89.8601C237.576 89.7204 237.743 89.6506 237.937 89.6506C238.131 89.6506 238.298 89.7204 238.438 89.8601C238.577 89.9974 238.647 90.1631 238.647 90.3572C238.647 90.4875 238.614 90.607 238.548 90.7159C238.484 90.8224 238.398 90.9077 238.292 90.9716C238.185 91.0355 238.067 91.0675 237.937 91.0675Z" fill="#070707"/>
<path d="M257.459 83.7273V91H256.358V84.8281H256.315L254.575 85.9645V84.9134L256.39 83.7273H257.459ZM261.958 91.1207C261.397 91.1184 260.918 90.9704 260.52 90.6768C260.122 90.3833 259.818 89.956 259.607 89.3949C259.397 88.8338 259.291 88.1579 259.291 87.3672C259.291 86.5788 259.397 85.9053 259.607 85.3466C259.82 84.7879 260.126 84.3617 260.523 84.0682C260.924 83.7746 261.402 83.6278 261.958 83.6278C262.514 83.6278 262.991 83.7758 263.389 84.0717C263.787 84.3653 264.091 84.7914 264.302 85.3501C264.515 85.9065 264.621 86.5788 264.621 87.3672C264.621 88.1603 264.516 88.8374 264.305 89.3984C264.095 89.9571 263.79 90.3845 263.393 90.6804C262.995 90.974 262.517 91.1207 261.958 91.1207ZM261.958 90.1726C262.451 90.1726 262.835 89.9323 263.112 89.4517C263.392 88.9711 263.531 88.2763 263.531 87.3672C263.531 86.7635 263.467 86.2533 263.339 85.8366C263.214 85.4176 263.033 85.1004 262.796 84.8849C262.562 84.6671 262.282 84.5582 261.958 84.5582C261.468 84.5582 261.083 84.7997 260.804 85.2827C260.525 85.7656 260.384 86.4605 260.381 87.3672C260.381 87.9732 260.444 88.4858 260.57 88.9048C260.697 89.3215 260.879 89.6375 261.113 89.853C261.347 90.0661 261.629 90.1726 261.958 90.1726ZM266.331 91.0675C266.137 91.0675 265.97 90.9988 265.831 90.8615C265.691 90.7218 265.621 90.5537 265.621 90.3572C265.621 90.1631 265.691 89.9974 265.831 89.8601C265.97 89.7204 266.137 89.6506 266.331 89.6506C266.525 89.6506 266.692 89.7204 266.832 89.8601C266.972 89.9974 267.042 90.1631 267.042 90.3572C267.042 90.4875 267.008 90.607 266.942 90.7159C266.878 90.8224 266.793 90.9077 266.686 90.9716C266.58 91.0355 266.462 91.0675 266.331 91.0675ZM270.33 83.7273V91H269.229V84.8281H269.186L267.446 85.9645V84.9134L269.261 83.7273H270.33ZM274.829 91.1207C274.268 91.1184 273.789 90.9704 273.391 90.6768C272.993 90.3833 272.689 89.956 272.478 89.3949C272.268 88.8338 272.162 88.1579 272.162 87.3672C272.162 86.5788 272.268 85.9053 272.478 85.3466C272.691 84.7879 272.997 84.3617 273.395 84.0682C273.795 83.7746 274.273 83.6278 274.829 83.6278C275.386 83.6278 275.863 83.7758 276.26 84.0717C276.658 84.3653 276.962 84.7914 277.173 85.3501C277.386 85.9065 277.493 86.5788 277.493 87.3672C277.493 88.1603 277.387 88.8374 277.176 89.3984C276.966 89.9571 276.662 90.3845 276.264 90.6804C275.866 90.974 275.388 91.1207 274.829 91.1207ZM274.829 90.1726C275.322 90.1726 275.706 89.9323 275.983 89.4517C276.263 88.9711 276.402 88.2763 276.402 87.3672C276.402 86.7635 276.338 86.2533 276.211 85.8366C276.085 85.4176 275.904 85.1004 275.667 84.8849C275.433 84.6671 275.154 84.5582 274.829 84.5582C274.339 84.5582 273.954 84.7997 273.675 85.2827C273.396 85.7656 273.255 86.4605 273.252 87.3672C273.252 87.9732 273.315 88.4858 273.441 88.9048C273.569 89.3215 273.75 89.6375 273.984 89.853C274.218 90.0661 274.5 90.1726 274.829 90.1726ZM279.202 91.0675C279.008 91.0675 278.841 90.9988 278.702 90.8615C278.562 90.7218 278.492 90.5537 278.492 90.3572C278.492 90.1631 278.562 89.9974 278.702 89.8601C278.841 89.7204 279.008 89.6506 279.202 89.6506C279.397 89.6506 279.563 89.7204 279.703 89.8601C279.843 89.9974 279.913 90.1631 279.913 90.3572C279.913 90.4875 279.879 90.607 279.813 90.7159C279.749 90.8224 279.664 90.9077 279.558 90.9716C279.451 91.0355 279.333 91.0675 279.202 91.0675ZM281.321 91V90.2045L283.782 87.6548C284.044 87.3778 284.261 87.1352 284.431 86.9268C284.604 86.7161 284.733 86.5161 284.819 86.3267C284.904 86.1373 284.946 85.9361 284.946 85.723C284.946 85.4815 284.89 85.2732 284.776 85.098C284.662 84.9205 284.507 84.7843 284.311 84.6896C284.114 84.5926 283.893 84.544 283.647 84.544C283.386 84.544 283.159 84.5973 282.965 84.7038C282.771 84.8104 282.622 84.9607 282.517 85.1548C282.413 85.349 282.361 85.5762 282.361 85.8366H281.314C281.314 85.3939 281.415 85.0069 281.619 84.6754C281.823 84.344 282.102 84.0871 282.457 83.9048C282.812 83.7202 283.216 83.6278 283.668 83.6278C284.125 83.6278 284.527 83.719 284.875 83.9013C285.226 84.0812 285.499 84.3274 285.696 84.6399C285.892 84.95 285.99 85.3004 285.99 85.6911C285.99 85.9609 285.94 86.2249 285.838 86.483C285.738 86.741 285.564 87.0286 285.316 87.3459C285.067 87.6607 284.721 88.0431 284.279 88.4929L282.833 90.0057V90.0589H286.108V91H281.321ZM289.985 91.1207C289.424 91.1184 288.945 90.9704 288.547 90.6768C288.15 90.3833 287.845 89.956 287.635 89.3949C287.424 88.8338 287.319 88.1579 287.319 87.3672C287.319 86.5788 287.424 85.9053 287.635 85.3466C287.848 84.7879 288.153 84.3617 288.551 84.0682C288.951 83.7746 289.429 83.6278 289.985 83.6278C290.542 83.6278 291.019 83.7758 291.417 84.0717C291.814 84.3653 292.118 84.7914 292.329 85.3501C292.542 85.9065 292.649 86.5788 292.649 87.3672C292.649 88.1603 292.543 88.8374 292.333 89.3984C292.122 89.9571 291.818 90.3845 291.42 90.6804C291.022 90.974 290.544 91.1207 289.985 91.1207ZM289.985 90.1726C290.478 90.1726 290.863 89.9323 291.14 89.4517C291.419 88.9711 291.559 88.2763 291.559 87.3672C291.559 86.7635 291.495 86.2533 291.367 85.8366C291.241 85.4176 291.06 85.1004 290.824 84.8849C290.589 84.6671 290.31 84.5582 289.985 84.5582C289.495 84.5582 289.111 84.7997 288.831 85.2827C288.552 85.7656 288.411 86.4605 288.409 87.3672C288.409 87.9732 288.471 88.4858 288.597 88.9048C288.725 89.3215 288.906 89.6375 289.14 89.853C289.375 90.0661 289.656 90.1726 289.985 90.1726ZM293.909 91V90.2045L296.369 87.6548C296.632 87.3778 296.849 87.1352 297.019 86.9268C297.192 86.7161 297.321 86.5161 297.406 86.3267C297.492 86.1373 297.534 85.9361 297.534 85.723C297.534 85.4815 297.477 85.2732 297.364 85.098C297.25 84.9205 297.095 84.7843 296.899 84.6896C296.702 84.5926 296.481 84.544 296.235 84.544C295.974 84.544 295.747 84.5973 295.553 84.7038C295.359 84.8104 295.209 84.9607 295.105 85.1548C295.001 85.349 294.949 85.5762 294.949 85.8366H293.901C293.901 85.3939 294.003 85.0069 294.207 84.6754C294.41 84.344 294.69 84.0871 295.045 83.9048C295.4 83.7202 295.804 83.6278 296.256 83.6278C296.713 83.6278 297.115 83.719 297.463 83.9013C297.814 84.0812 298.087 84.3274 298.284 84.6399C298.48 84.95 298.578 85.3004 298.578 85.6911C298.578 85.9609 298.527 86.2249 298.426 86.483C298.326 86.741 298.152 87.0286 297.904 87.3459C297.655 87.6607 297.309 88.0431 296.867 88.4929L295.421 90.0057V90.0589H298.695V91H293.909ZM302.442 91.0994C301.997 91.0994 301.597 91.0142 301.242 90.8438C300.889 90.6709 300.607 90.4342 300.396 90.1335C300.186 89.8329 300.073 89.4896 300.059 89.1037H301.124C301.151 89.4162 301.289 89.6731 301.54 89.8743C301.791 90.0755 302.092 90.1761 302.442 90.1761C302.721 90.1761 302.969 90.1122 303.184 89.9844C303.402 89.8542 303.572 89.6754 303.695 89.4482C303.821 89.2209 303.884 88.9616 303.884 88.6705C303.884 88.3745 303.82 88.1106 303.692 87.8786C303.564 87.6465 303.388 87.4643 303.163 87.3317C302.94 87.1991 302.685 87.1316 302.396 87.1293C302.176 87.1293 301.954 87.1671 301.732 87.2429C301.509 87.3187 301.329 87.4181 301.192 87.5412L300.187 87.392L300.595 83.7273H304.594V84.6683H301.508L301.277 86.7031H301.32C301.462 86.5658 301.65 86.451 301.884 86.3587C302.121 86.2663 302.374 86.2202 302.644 86.2202C303.087 86.2202 303.481 86.3255 303.827 86.5362C304.175 86.7469 304.448 87.0346 304.647 87.3991C304.848 87.7614 304.948 88.178 304.945 88.6491C304.948 89.1203 304.841 89.5405 304.626 89.9098C304.413 90.2791 304.117 90.5703 303.738 90.7834C303.362 90.9941 302.93 91.0994 302.442 91.0994Z" fill="#070707"/>
<path d="M14.8523 92.1193C14.2898 92.1193 13.7884 92.0227 13.348 91.8295C12.9105 91.6364 12.5625 91.3679 12.304 91.0241C12.0483 90.6776 11.9091 90.2756 11.8864 89.8182H12.9602C12.983 90.0994 13.0795 90.3423 13.25 90.5469C13.4205 90.7486 13.6435 90.9048 13.919 91.0156C14.1946 91.1264 14.5 91.1818 14.8352 91.1818C15.2102 91.1818 15.5426 91.1165 15.8324 90.9858C16.1222 90.8551 16.3494 90.6733 16.5142 90.4403C16.679 90.2074 16.7614 89.9375 16.7614 89.6307C16.7614 89.3097 16.6818 89.027 16.5227 88.7827C16.3636 88.5355 16.1307 88.3423 15.8239 88.2031C15.517 88.0639 15.142 87.9943 14.6989 87.9943H14V87.0568H14.6989C15.0455 87.0568 15.3494 86.9943 15.6108 86.8693C15.875 86.7443 16.081 86.5682 16.2287 86.3409C16.3793 86.1136 16.4545 85.8466 16.4545 85.5398C16.4545 85.2443 16.3892 84.9872 16.2585 84.7685C16.1278 84.5497 15.9432 84.3793 15.7045 84.2571C15.4688 84.1349 15.1903 84.0739 14.8693 84.0739C14.5682 84.0739 14.2841 84.1293 14.017 84.2401C13.7528 84.348 13.5369 84.5057 13.3693 84.7131C13.2017 84.9176 13.1108 85.1648 13.0966 85.4545H12.0739C12.0909 84.9972 12.2287 84.5966 12.4872 84.2528C12.7457 83.9062 13.0838 83.6364 13.5014 83.4432C13.9219 83.25 14.3835 83.1534 14.8864 83.1534C15.4261 83.1534 15.8892 83.2628 16.2756 83.4815C16.6619 83.6974 16.9588 83.983 17.1662 84.3381C17.3736 84.6932 17.4773 85.0767 17.4773 85.4886C17.4773 85.9801 17.348 86.3991 17.0895 86.7457C16.8338 87.0923 16.4858 87.3324 16.0455 87.4659V87.5341C16.5966 87.625 17.027 87.8594 17.3366 88.2372C17.6463 88.6122 17.8011 89.0767 17.8011 89.6307C17.8011 90.1051 17.6719 90.5312 17.4134 90.9091C17.1577 91.2841 16.8082 91.5795 16.3651 91.7955C15.9219 92.0114 15.4176 92.1193 14.8523 92.1193Z" fill="#BFBFBF"/>
<path d="M28.5 100.5V125.5H135.5V100.5H28.5Z" fill="white" stroke="#BFBFBF"/>
<path d="M135.5 100.5V125.5H248.5V100.5H135.5Z" fill="white" stroke="#BFBFBF"/>
<path d="M248.5 100.5V125.5H361.5V100.5H248.5Z" fill="white" stroke="#BFBFBF"/>
<path d="M0.5 100.5V125.5H28.5V100.5H0.5Z" fill="white" stroke="#BFBFBF"/>
<path d="M35.4134 116.067C35.2192 116.067 35.0523 115.999 34.9126 115.862C34.773 115.722 34.7031 115.554 34.7031 115.357C34.7031 115.163 34.773 114.997 34.9126 114.86C35.0523 114.72 35.2192 114.651 35.4134 114.651C35.6075 114.651 35.7744 114.72 35.9141 114.86C36.0537 114.997 36.1236 115.163 36.1236 115.357C36.1236 115.487 36.0904 115.607 36.0241 115.716C35.9602 115.822 35.875 115.908 35.7685 115.972C35.6619 116.036 35.5436 116.067 35.4134 116.067ZM38.2454 116.067C38.0513 116.067 37.8844 115.999 37.7447 115.862C37.605 115.722 37.5352 115.554 37.5352 115.357C37.5352 115.163 37.605 114.997 37.7447 114.86C37.8844 114.72 38.0513 114.651 38.2454 114.651C38.4395 114.651 38.6064 114.72 38.7461 114.86C38.8858 114.997 38.9556 115.163 38.9556 115.357C38.9556 115.487 38.9225 115.607 38.8562 115.716C38.7923 115.822 38.707 115.908 38.6005 115.972C38.494 116.036 38.3756 116.067 38.2454 116.067ZM41.0774 116.067C40.8833 116.067 40.7164 115.999 40.5767 115.862C40.437 115.722 40.3672 115.554 40.3672 115.357C40.3672 115.163 40.437 114.997 40.5767 114.86C40.7164 114.72 40.8833 114.651 41.0774 114.651C41.2715 114.651 41.4384 114.72 41.5781 114.86C41.7178 114.997 41.7876 115.163 41.7876 115.357C41.7876 115.487 41.7545 115.607 41.6882 115.716C41.6243 115.822 41.5391 115.908 41.4325 115.972C41.326 116.036 41.2076 116.067 41.0774 116.067Z" fill="#070707"/>
<path d="M141.413 116.067C141.219 116.067 141.052 115.999 140.913 115.862C140.773 115.722 140.703 115.554 140.703 115.357C140.703 115.163 140.773 114.997 140.913 114.86C141.052 114.72 141.219 114.651 141.413 114.651C141.607 114.651 141.774 114.72 141.914 114.86C142.054 114.997 142.124 115.163 142.124 115.357C142.124 115.487 142.09 115.607 142.024 115.716C141.96 115.822 141.875 115.908 141.768 115.972C141.662 116.036 141.544 116.067 141.413 116.067ZM144.245 116.067C144.051 116.067 143.884 115.999 143.745 115.862C143.605 115.722 143.535 115.554 143.535 115.357C143.535 115.163 143.605 114.997 143.745 114.86C143.884 114.72 144.051 114.651 144.245 114.651C144.44 114.651 144.606 114.72 144.746 114.86C144.886 114.997 144.956 115.163 144.956 115.357C144.956 115.487 144.922 115.607 144.856 115.716C144.792 115.822 144.707 115.908 144.6 115.972C144.494 116.036 144.376 116.067 144.245 116.067ZM147.077 116.067C146.883 116.067 146.716 115.999 146.577 115.862C146.437 115.722 146.367 115.554 146.367 115.357C146.367 115.163 146.437 114.997 146.577 114.86C146.716 114.72 146.883 114.651 147.077 114.651C147.272 114.651 147.438 114.72 147.578 114.86C147.718 114.997 147.788 115.163 147.788 115.357C147.788 115.487 147.754 115.607 147.688 115.716C147.624 115.822 147.539 115.908 147.433 115.972C147.326 116.036 147.208 116.067 147.077 116.067Z" fill="#070707"/>
<path d="M255.413 116.067C255.219 116.067 255.052 115.999 254.913 115.862C254.773 115.722 254.703 115.554 254.703 115.357C254.703 115.163 254.773 114.997 254.913 114.86C255.052 114.72 255.219 114.651 255.413 114.651C255.607 114.651 255.774 114.72 255.914 114.86C256.054 114.997 256.124 115.163 256.124 115.357C256.124 115.487 256.09 115.607 256.024 115.716C255.96 115.822 255.875 115.908 255.768 115.972C255.662 116.036 255.544 116.067 255.413 116.067ZM258.245 116.067C258.051 116.067 257.884 115.999 257.745 115.862C257.605 115.722 257.535 115.554 257.535 115.357C257.535 115.163 257.605 114.997 257.745 114.86C257.884 114.72 258.051 114.651 258.245 114.651C258.44 114.651 258.606 114.72 258.746 114.86C258.886 114.997 258.956 115.163 258.956 115.357C258.956 115.487 258.922 115.607 258.856 115.716C258.792 115.822 258.707 115.908 258.6 115.972C258.494 116.036 258.376 116.067 258.245 116.067ZM261.077 116.067C260.883 116.067 260.716 115.999 260.577 115.862C260.437 115.722 260.367 115.554 260.367 115.357C260.367 115.163 260.437 114.997 260.577 114.86C260.716 114.72 260.883 114.651 261.077 114.651C261.272 114.651 261.438 114.72 261.578 114.86C261.718 114.997 261.788 115.163 261.788 115.357C261.788 115.487 261.754 115.607 261.688 115.716C261.624 115.822 261.539 115.908 261.433 115.972C261.326 116.036 261.208 116.067 261.077 116.067Z" fill="#070707"/>
<path d="M11.6989 115.21V114.341L15.5341 108.273H16.1648V109.619H15.7386L12.8409 114.205V114.273H18.0057V115.21H11.6989ZM15.8068 117V114.946V114.541V108.273H16.8125V117H15.8068Z" fill="#BFBFBF"/>
<path d="M308.08 11H307.023C306.96 10.696 306.851 10.429 306.695 10.1989C306.541 9.96875 306.354 9.77557 306.132 9.61932C305.913 9.46023 305.67 9.34091 305.403 9.26136C305.136 9.18182 304.858 9.14205 304.568 9.14205C304.04 9.14205 303.561 9.27557 303.132 9.54261C302.706 9.80966 302.366 10.2031 302.114 10.723C301.864 11.2429 301.739 11.8807 301.739 12.6364C301.739 13.392 301.864 14.0298 302.114 14.5497C302.366 15.0696 302.706 15.4631 303.132 15.7301C303.561 15.9972 304.04 16.1307 304.568 16.1307C304.858 16.1307 305.136 16.0909 305.403 16.0114C305.67 15.9318 305.913 15.8139 306.132 15.6577C306.354 15.4986 306.541 15.304 306.695 15.0739C306.851 14.8409 306.96 14.5739 307.023 14.2727H308.08C308 14.7187 307.855 15.1179 307.645 15.4702C307.435 15.8224 307.173 16.1222 306.861 16.3693C306.548 16.6136 306.197 16.7997 305.808 16.9276C305.422 17.0554 305.009 17.1193 304.568 17.1193C303.824 17.1193 303.162 16.9375 302.582 16.5739C302.003 16.2102 301.547 15.6932 301.214 15.0227C300.882 14.3523 300.716 13.5568 300.716 12.6364C300.716 11.7159 300.882 10.9205 301.214 10.25C301.547 9.57955 302.003 9.0625 302.582 8.69886C303.162 8.33523 303.824 8.15341 304.568 8.15341C305.009 8.15341 305.422 8.21733 305.808 8.34517C306.197 8.47301 306.548 8.66051 306.861 8.90767C307.173 9.15199 307.435 9.45028 307.645 9.80256C307.855 10.152 308 10.5511 308.08 11Z" fill="#BFBFBF"/>
<path d="M188.057 17V8.27273H191.108C191.716 8.27273 192.217 8.37784 192.612 8.58807C193.007 8.79545 193.301 9.07528 193.494 9.42756C193.688 9.77699 193.784 10.1648 193.784 10.5909C193.784 10.9659 193.717 11.2756 193.584 11.5199C193.453 11.7642 193.28 11.9574 193.064 12.0994C192.851 12.2415 192.619 12.3466 192.369 12.4148V12.5C192.636 12.517 192.905 12.6108 193.175 12.7812C193.445 12.9517 193.67 13.196 193.852 13.5142C194.034 13.8324 194.125 14.2216 194.125 14.6818C194.125 15.1193 194.026 15.5128 193.827 15.8622C193.628 16.2116 193.314 16.4886 192.885 16.6932C192.456 16.8977 191.898 17 191.21 17H188.057ZM189.114 16.0625H191.21C191.901 16.0625 192.391 15.929 192.68 15.6619C192.973 15.392 193.119 15.0653 193.119 14.6818C193.119 14.3864 193.044 14.1136 192.893 13.8636C192.743 13.6108 192.528 13.4091 192.25 13.2585C191.972 13.1051 191.642 13.0284 191.261 13.0284H189.114V16.0625ZM189.114 12.108H191.074C191.392 12.108 191.679 12.0455 191.935 11.9205C192.193 11.7955 192.398 11.6193 192.548 11.392C192.702 11.1648 192.778 10.8977 192.778 10.5909C192.778 10.2074 192.645 9.8821 192.378 9.61506C192.111 9.34517 191.688 9.21023 191.108 9.21023H189.114V12.108Z" fill="#BFBFBF"/>
</svg>
